<svg xmlns="http://www.w3.org/2000/svg" xmlns:xlink="http://www.w3.org/1999/xlink" width="500" zoomAndPan="magnify" viewBox="0 0 375 374.999991" height="500" preserveAspectRatio="xMidYMid meet" version="1.0"><defs><g/><clipPath id="8451448a3c"><path d="M 6.695312 143.132812 L 164.945312 143.132812 L 164.945312 278.996094 L 6.695312 278.996094 Z M 6.695312 143.132812 " clip-rule="nonzero"/></clipPath><clipPath id="3eea0d751a"><path d="M 158.195312 256.167969 L 186.539062 256.167969 L 186.539062 278.996094 L 158.195312 278.996094 Z M 158.195312 256.167969 " clip-rule="nonzero"/></clipPath><clipPath id="05b4eb256d"><path d="M 207.121094 143.132812 L 365.195312 143.132812 L 365.195312 278.996094 L 207.121094 278.996094 Z M 207.121094 143.132812 " clip-rule="nonzero"/></clipPath><clipPath id="dde30a0a44"><path d="M 185.527344 256.167969 L 213.871094 256.167969 L 213.871094 278.996094 L 185.527344 278.996094 Z M 185.527344 256.167969 " clip-rule="nonzero"/></clipPath><clipPath id="bb5e414466"><path d="M 222 8.386719 L 253 8.386719 L 253 39 L 222 39 Z M 222 8.386719 " clip-rule="nonzero"/></clipPath></defs><g clip-path="url(#8451448a3c)"><path fill="#2f4f76" d="M 163.824219 277.683594 C 163.773438 277.664062 163.738281 277.652344 163.710938 277.648438 C 163.730469 277.660156 163.769531 277.675781 163.820312 277.695312 C 163.675781 278.125 163.535156 278.5625 163.410156 278.996094 C 161.691406 278.492188 159.984375 278.007812 158.261719 277.539062 C 109.503906 264.117188 57.785156 261.433594 6.695312 270.039062 C 15.988281 237.375 25.285156 204.714844 34.578125 172.054688 C 38.539062 158.136719 49.550781 147.359375 63.535156 143.65625 C 64.175781 143.484375 64.820312 143.316406 65.460938 143.152344 C 53.496094 179.5625 41.53125 215.972656 29.5625 252.382812 C 69.671875 247.265625 128.089844 256.464844 160.109375 272.707031 C 161.757812 273.539062 163.328125 274.390625 164.820312 275.261719 C 164.445312 276.042969 164.109375 276.851562 163.824219 277.683594 " fill-opacity="1" fill-rule="nonzero"/></g><path fill="#196fa4" d="M 105.042969 121.226562 C 104.800781 121.277344 104.558594 121.328125 104.316406 121.382812 C 90.171875 124.488281 78.734375 134.863281 74.222656 148.625 C 63.972656 179.886719 54.300781 209.371094 43.734375 241.617188 C 115.578125 238.261719 155.335938 263.714844 155.335938 263.714844 C 119.140625 231.851562 64.78125 231.980469 64.78125 231.980469 C 64.78125 231.980469 91.644531 157.132812 105.042969 121.226562 " fill-opacity="1" fill-rule="nonzero"/><path fill="#50a5cd" d="M 143.191406 104.015625 C 143.109375 104.035156 143.023438 104.050781 142.941406 104.070312 C 128.785156 107.128906 117.355469 117.546875 112.84375 131.308594 C 102.855469 161.777344 93.421875 190.542969 83.113281 221.984375 C 137.125 229.007812 159.882812 261.640625 159.882812 261.640625 C 148.71875 228.792969 102.777344 215.695312 102.777344 215.695312 C 102.777344 215.695312 130.0625 139.199219 143.191406 104.015625 " fill-opacity="1" fill-rule="nonzero"/><g clip-path="url(#3eea0d751a)"><path fill="#2f4f76" d="M 186.300781 256.34375 C 174.796875 256.34375 164.839844 263.019531 160.109375 272.707031 C 159.660156 273.621094 159.257812 274.566406 158.90625 275.539062 C 158.671875 276.195312 158.457031 276.863281 158.261719 277.539062 C 159.984375 278.007812 161.691406 278.492188 163.410156 278.996094 C 163.535156 278.5625 163.675781 278.125 163.820312 277.695312 L 163.824219 277.683594 C 164.109375 276.851562 164.445312 276.042969 164.820312 275.261719 C 168.640625 267.238281 176.828125 261.6875 186.300781 261.6875 L 186.300781 256.34375 " fill-opacity="1" fill-rule="nonzero"/></g><path fill="#50a5cd" d="M 218.828125 108.535156 C 236.863281 88.800781 244.351562 66.347656 240.191406 35.320312 C 251.402344 64.441406 251.863281 96.648438 230.859375 122.46875 C 195.171875 166.347656 130.160156 172.664062 127.410156 223.796875 C 118.347656 162.820312 180.789062 150.164062 218.828125 108.535156 " fill-opacity="1" fill-rule="nonzero"/><path fill="#f6c275" d="M 164.898438 90.148438 C 164.898438 102.371094 173.363281 112.285156 183.808594 112.285156 C 194.253906 112.285156 202.722656 102.371094 202.722656 90.148438 C 202.722656 77.921875 194.253906 68.007812 183.808594 68.007812 C 173.363281 68.007812 164.898438 77.921875 164.898438 90.148438 " fill-opacity="1" fill-rule="nonzero"/><g clip-path="url(#05b4eb256d)"><path fill="#2f4f76" d="M 208.164062 277.683594 C 208.214844 277.664062 208.253906 277.652344 208.277344 277.648438 C 208.257812 277.660156 208.222656 277.675781 208.171875 277.695312 C 208.316406 278.125 208.453125 278.5625 208.582031 278.996094 C 210.296875 278.492188 212.007812 278.007812 213.730469 277.539062 C 262.484375 264.117188 314.203125 261.433594 365.292969 270.039062 C 356 237.375 346.703125 204.714844 337.410156 172.054688 C 333.449219 158.136719 322.441406 147.359375 308.453125 143.65625 C 307.8125 143.484375 307.171875 143.316406 306.527344 143.152344 C 318.492188 179.5625 330.460938 215.972656 342.425781 252.382812 C 302.320312 247.265625 243.898438 256.464844 211.878906 272.707031 C 210.234375 273.539062 208.664062 274.390625 207.167969 275.261719 C 207.546875 276.042969 207.878906 276.851562 208.164062 277.683594 " fill-opacity="1" fill-rule="nonzero"/></g><path fill="#196fa4" d="M 266.945312 121.226562 C 267.191406 121.277344 267.429688 121.328125 267.671875 121.382812 C 281.816406 124.488281 293.257812 134.863281 297.769531 148.625 C 308.015625 179.886719 317.6875 209.371094 328.257812 241.617188 C 256.410156 238.261719 216.652344 263.714844 216.652344 263.714844 C 252.847656 231.851562 307.210938 231.980469 307.210938 231.980469 C 307.210938 231.980469 280.34375 157.132812 266.945312 121.226562 " fill-opacity="1" fill-rule="nonzero"/><path fill="#50a5cd" d="M 211.847656 261.644531 C 211.847656 261.644531 234.601562 229.003906 288.621094 221.984375 C 278.445312 190.953125 269.121094 162.53125 259.28125 132.503906 C 255.335938 138.445312 250.4375 143.792969 244.769531 148.394531 C 256.777344 181.554688 268.957031 215.695312 268.957031 215.695312 C 268.957031 215.695312 223.015625 228.789062 211.847656 261.644531 " fill-opacity="1" fill-rule="nonzero"/><g clip-path="url(#dde30a0a44)"><path fill="#2f4f76" d="M 185.6875 261.6875 C 195.164062 261.6875 203.351562 267.238281 207.167969 275.261719 C 207.546875 276.042969 207.878906 276.851562 208.164062 277.683594 L 208.171875 277.695312 C 208.316406 278.125 208.453125 278.5625 208.582031 278.996094 C 210.296875 278.492188 212.007812 278.007812 213.730469 277.539062 C 213.53125 276.863281 213.316406 276.195312 213.085938 275.539062 C 212.730469 274.566406 212.328125 273.621094 211.878906 272.707031 C 207.148438 263.019531 197.195312 256.34375 185.6875 256.34375 L 185.6875 261.6875 " fill-opacity="1" fill-rule="nonzero"/></g><path fill="#f6c275" d="M 230.253906 155.296875 C 247.214844 145.640625 260.1875 130.554688 264.976562 111.910156 C 266.308594 136.519531 254.078125 158.164062 234.402344 171.5 C 201.15625 194.03125 152.8125 194.09375 134.339844 226.039062 C 141.929688 184.585938 193.796875 176.066406 230.253906 155.296875 " fill-opacity="1" fill-rule="nonzero"/><g clip-path="url(#bb5e414466)"><path fill="#f6cf95" d="M 222.683594 13.539062 C 233.558594 23.078125 234.007812 25.269531 227.71875 38.300781 C 237.257812 27.421875 239.449219 26.976562 252.480469 33.261719 C 241.601562 23.722656 241.15625 21.53125 247.441406 8.503906 C 237.902344 19.378906 235.710938 19.824219 222.683594 13.539062 " fill-opacity="1" fill-rule="nonzero"/></g><path fill="#f6cf95" d="M 267.78125 61.34375 C 271.53125 61.855469 271.945312 62.269531 272.453125 66.015625 C 272.964844 62.269531 273.378906 61.855469 277.125 61.347656 C 273.378906 60.835938 272.964844 60.421875 272.457031 56.675781 C 271.945312 60.421875 271.53125 60.835938 267.78125 61.34375 " fill-opacity="1" fill-rule="nonzero"/><path fill="#f6cf95" d="M 202.351562 58.511719 C 209.972656 59.550781 210.8125 60.390625 211.84375 68.007812 C 212.882812 60.390625 213.722656 59.550781 221.34375 58.519531 C 213.726562 57.480469 212.886719 56.636719 211.851562 49.019531 C 210.8125 56.636719 209.972656 57.476562 202.351562 58.511719 " fill-opacity="1" fill-rule="nonzero"/><g fill="#2f4f76" fill-opacity="1"><g transform="translate(-0.916906, 325.481829)"><g><path d="M 4.046875 -34.1875 L 11.96875 -34.1875 L 11.96875 -6.453125 L 29.109375 -6.453125 L 29.109375 0 L 4.046875 0 Z M 4.046875 -34.1875 "/></g></g></g><g fill="#2f4f76" fill-opacity="1"><g transform="translate(33.786396, 325.481829)"><g><path d="M 30.515625 -6.34375 L 30.515625 0 L 4.046875 0 L 4.046875 -34.1875 L 29.890625 -34.1875 L 29.890625 -27.828125 L 11.921875 -27.828125 L 11.921875 -20.40625 L 27.78125 -20.40625 L 27.78125 -14.265625 L 11.921875 -14.265625 L 11.921875 -6.34375 Z M 30.515625 -6.34375 "/></g></g></g><g fill="#2f4f76" fill-opacity="1"><g transform="translate(71.759666, 325.481829)"><g><path d="M 30.515625 -6.34375 L 30.515625 0 L 4.046875 0 L 4.046875 -34.1875 L 29.890625 -34.1875 L 29.890625 -27.828125 L 11.921875 -27.828125 L 11.921875 -20.40625 L 27.78125 -20.40625 L 27.78125 -14.265625 L 11.921875 -14.265625 L 11.921875 -6.34375 Z M 30.515625 -6.34375 "/></g></g></g><g fill="#2f4f76" fill-opacity="1"><g transform="translate(109.732933, 325.481829)"><g/></g></g><g fill="#2f4f76" fill-opacity="1"><g transform="translate(128.769684, 325.481829)"><g><path d="M 20.40625 0.59375 C 16.925781 0.59375 13.773438 -0.160156 10.953125 -1.671875 C 8.140625 -3.191406 5.925781 -5.296875 4.3125 -7.984375 C 2.707031 -10.671875 1.90625 -13.707031 1.90625 -17.09375 C 1.90625 -20.476562 2.707031 -23.507812 4.3125 -26.1875 C 5.925781 -28.875 8.140625 -30.972656 10.953125 -32.484375 C 13.773438 -34.003906 16.941406 -34.765625 20.453125 -34.765625 C 23.421875 -34.765625 26.097656 -34.242188 28.484375 -33.203125 C 30.878906 -32.160156 32.890625 -30.664062 34.515625 -28.71875 L 29.4375 -24.03125 C 27.132812 -26.695312 24.269531 -28.03125 20.84375 -28.03125 C 18.726562 -28.03125 16.84375 -27.566406 15.1875 -26.640625 C 13.53125 -25.710938 12.234375 -24.414062 11.296875 -22.75 C 10.367188 -21.09375 9.90625 -19.207031 9.90625 -17.09375 C 9.90625 -14.976562 10.367188 -13.085938 11.296875 -11.421875 C 12.234375 -9.765625 13.53125 -8.472656 15.1875 -7.546875 C 16.84375 -6.617188 18.726562 -6.15625 20.84375 -6.15625 C 24.269531 -6.15625 27.132812 -7.503906 29.4375 -10.203125 L 34.515625 -5.515625 C 32.890625 -3.535156 30.875 -2.019531 28.46875 -0.96875 C 26.0625 0.0703125 23.375 0.59375 20.40625 0.59375 Z M 20.40625 0.59375 "/></g></g></g><g fill="#2f4f76" fill-opacity="1"><g transform="translate(169.768907, 325.481829)"><g><path d="M 20.609375 0.59375 C 17.054688 0.59375 13.851562 -0.171875 11 -1.703125 C 8.15625 -3.234375 5.925781 -5.34375 4.3125 -8.03125 C 2.707031 -10.71875 1.90625 -13.738281 1.90625 -17.09375 C 1.90625 -20.445312 2.707031 -23.460938 4.3125 -26.140625 C 5.925781 -28.828125 8.15625 -30.9375 11 -32.46875 C 13.851562 -34 17.054688 -34.765625 20.609375 -34.765625 C 24.148438 -34.765625 27.335938 -34 30.171875 -32.46875 C 33.003906 -30.9375 35.234375 -28.828125 36.859375 -26.140625 C 38.492188 -23.460938 39.3125 -20.445312 39.3125 -17.09375 C 39.3125 -13.738281 38.492188 -10.71875 36.859375 -8.03125 C 35.234375 -5.34375 33.003906 -3.234375 30.171875 -1.703125 C 27.335938 -0.171875 24.148438 0.59375 20.609375 0.59375 Z M 20.609375 -6.15625 C 22.628906 -6.15625 24.453125 -6.617188 26.078125 -7.546875 C 27.703125 -8.472656 28.976562 -9.765625 29.90625 -11.421875 C 30.832031 -13.085938 31.296875 -14.976562 31.296875 -17.09375 C 31.296875 -19.207031 30.832031 -21.09375 29.90625 -22.75 C 28.976562 -24.414062 27.703125 -25.710938 26.078125 -26.640625 C 24.453125 -27.566406 22.628906 -28.03125 20.609375 -28.03125 C 18.585938 -28.03125 16.765625 -27.566406 15.140625 -26.640625 C 13.515625 -25.710938 12.234375 -24.414062 11.296875 -22.75 C 10.367188 -21.09375 9.90625 -19.207031 9.90625 -17.09375 C 9.90625 -14.976562 10.367188 -13.085938 11.296875 -11.421875 C 12.234375 -9.765625 13.515625 -8.472656 15.140625 -7.546875 C 16.765625 -6.617188 18.585938 -6.15625 20.609375 -6.15625 Z M 20.609375 -6.15625 "/></g></g></g><g fill="#2f4f76" fill-opacity="1"><g transform="translate(216.185523, 325.481829)"><g><path d="M 19.234375 0.59375 C 14.359375 0.59375 10.5625 -0.753906 7.84375 -3.453125 C 5.125 -6.160156 3.765625 -10.023438 3.765625 -15.046875 L 3.765625 -34.1875 L 11.671875 -34.1875 L 11.671875 -15.328125 C 11.671875 -9.210938 14.207031 -6.15625 19.28125 -6.15625 C 21.757812 -6.15625 23.648438 -6.894531 24.953125 -8.375 C 26.253906 -9.851562 26.90625 -12.171875 26.90625 -15.328125 L 26.90625 -34.1875 L 34.71875 -34.1875 L 34.71875 -15.046875 C 34.71875 -10.023438 33.359375 -6.160156 30.640625 -3.453125 C 27.921875 -0.753906 24.117188 0.59375 19.234375 0.59375 Z M 19.234375 0.59375 "/></g></g></g><g fill="#2f4f76" fill-opacity="1"><g transform="translate(259.869052, 325.481829)"><g><path d="M 35.40625 -34.1875 L 35.40625 0 L 28.90625 0 L 11.859375 -20.75 L 11.859375 0 L 4.046875 0 L 4.046875 -34.1875 L 10.59375 -34.1875 L 27.59375 -13.421875 L 27.59375 -34.1875 Z M 35.40625 -34.1875 "/></g></g></g><g fill="#2f4f76" fill-opacity="1"><g transform="translate(304.528696, 325.481829)"><g><path d="M 11.140625 -27.734375 L 0.203125 -27.734375 L 0.203125 -34.1875 L 29.984375 -34.1875 L 29.984375 -27.734375 L 19.046875 -27.734375 L 19.046875 0 L 11.140625 0 Z M 11.140625 -27.734375 "/></g></g></g><g fill="#2f4f76" fill-opacity="1"><g transform="translate(339.915286, 325.481829)"><g><path d="M 20.453125 -12.109375 L 20.453125 0 L 12.546875 0 L 12.546875 -12.203125 L -0.6875 -34.1875 L 7.71875 -34.1875 L 16.84375 -19 L 25.984375 -34.1875 L 33.734375 -34.1875 Z M 20.453125 -12.109375 "/></g></g></g><g fill="#c29450" fill-opacity="1"><g transform="translate(68.809125, 360.029569)"><g><path d="M 7.390625 -13.6875 C 9.160156 -13.6875 10.550781 -13.257812 11.5625 -12.40625 C 12.582031 -11.5625 13.09375 -10.394531 13.09375 -8.90625 C 13.09375 -7.425781 12.582031 -6.257812 11.5625 -5.40625 C 10.550781 -4.5625 9.160156 -4.140625 7.390625 -4.140625 L 4 -4.140625 L 4 0 L 2.046875 0 L 2.046875 -13.6875 Z M 7.328125 -5.84375 C 8.566406 -5.84375 9.507812 -6.101562 10.15625 -6.625 C 10.8125 -7.15625 11.140625 -7.914062 11.140625 -8.90625 C 11.140625 -9.90625 10.8125 -10.664062 10.15625 -11.1875 C 9.507812 -11.71875 8.566406 -11.984375 7.328125 -11.984375 L 4 -11.984375 L 4 -5.84375 Z M 7.328125 -5.84375 "/></g></g></g><g fill="#c29450" fill-opacity="1"><g transform="translate(87.92649, 360.029569)"><g><path d="M 7.71875 0.15625 C 5.894531 0.15625 4.472656 -0.363281 3.453125 -1.40625 C 2.441406 -2.445312 1.9375 -3.945312 1.9375 -5.90625 L 1.9375 -13.6875 L 3.890625 -13.6875 L 3.890625 -5.984375 C 3.890625 -3.046875 5.171875 -1.578125 7.734375 -1.578125 C 8.984375 -1.578125 9.941406 -1.9375 10.609375 -2.65625 C 11.273438 -3.382812 11.609375 -4.492188 11.609375 -5.984375 L 11.609375 -13.6875 L 13.5 -13.6875 L 13.5 -5.90625 C 13.5 -3.9375 12.988281 -2.429688 11.96875 -1.390625 C 10.957031 -0.359375 9.539062 0.15625 7.71875 0.15625 Z M 7.71875 0.15625 "/></g></g></g><g fill="#c29450" fill-opacity="1"><g transform="translate(108.392403, 360.029569)"><g><path d="M 11.265625 -7.09375 C 12.054688 -6.875 12.675781 -6.472656 13.125 -5.890625 C 13.582031 -5.316406 13.8125 -4.582031 13.8125 -3.6875 C 13.8125 -2.507812 13.363281 -1.597656 12.46875 -0.953125 C 11.582031 -0.316406 10.285156 0 8.578125 0 L 2.046875 0 L 2.046875 -13.6875 L 8.1875 -13.6875 C 9.75 -13.6875 10.957031 -13.375 11.8125 -12.75 C 12.664062 -12.125 13.09375 -11.253906 13.09375 -10.140625 C 13.09375 -9.421875 12.925781 -8.800781 12.59375 -8.28125 C 12.257812 -7.757812 11.816406 -7.363281 11.265625 -7.09375 Z M 4 -12.09375 L 4 -7.71875 L 8.015625 -7.71875 C 9.015625 -7.71875 9.785156 -7.898438 10.328125 -8.265625 C 10.867188 -8.640625 11.140625 -9.1875 11.140625 -9.90625 C 11.140625 -10.625 10.867188 -11.164062 10.328125 -11.53125 C 9.785156 -11.90625 9.015625 -12.09375 8.015625 -12.09375 Z M 8.5 -1.578125 C 9.613281 -1.578125 10.445312 -1.757812 11 -2.125 C 11.5625 -2.488281 11.84375 -3.0625 11.84375 -3.84375 C 11.84375 -5.375 10.726562 -6.140625 8.5 -6.140625 L 4 -6.140625 L 4 -1.578125 Z M 8.5 -1.578125 "/></g></g></g><g fill="#c29450" fill-opacity="1"><g transform="translate(128.193814, 360.029569)"><g><path d="M 2.046875 -13.6875 L 4 -13.6875 L 4 -1.703125 L 11.421875 -1.703125 L 11.421875 0 L 2.046875 0 Z M 2.046875 -13.6875 "/></g></g></g><g fill="#c29450" fill-opacity="1"><g transform="translate(144.809503, 360.029569)"><g><path d="M 2.046875 -13.6875 L 4 -13.6875 L 4 0 L 2.046875 0 Z M 2.046875 -13.6875 "/></g></g></g><g fill="#c29450" fill-opacity="1"><g transform="translate(155.874597, 360.029569)"><g><path d="M 8.171875 0.15625 C 6.804688 0.15625 5.570312 -0.144531 4.46875 -0.75 C 3.363281 -1.351562 2.5 -2.1875 1.875 -3.25 C 1.25 -4.3125 0.9375 -5.507812 0.9375 -6.84375 C 0.9375 -8.164062 1.25 -9.359375 1.875 -10.421875 C 2.5 -11.484375 3.363281 -12.316406 4.46875 -12.921875 C 5.582031 -13.535156 6.820312 -13.84375 8.1875 -13.84375 C 9.257812 -13.84375 10.238281 -13.660156 11.125 -13.296875 C 12.007812 -12.941406 12.765625 -12.410156 13.390625 -11.703125 L 12.125 -10.484375 C 11.09375 -11.554688 9.804688 -12.09375 8.265625 -12.09375 C 7.253906 -12.09375 6.335938 -11.863281 5.515625 -11.40625 C 4.691406 -10.957031 4.046875 -10.332031 3.578125 -9.53125 C 3.117188 -8.726562 2.890625 -7.832031 2.890625 -6.84375 C 2.890625 -5.851562 3.117188 -4.957031 3.578125 -4.15625 C 4.046875 -3.351562 4.691406 -2.722656 5.515625 -2.265625 C 6.335938 -1.804688 7.253906 -1.578125 8.265625 -1.578125 C 9.796875 -1.578125 11.082031 -2.125 12.125 -3.21875 L 13.390625 -2 C 12.765625 -1.289062 12.003906 -0.753906 11.109375 -0.390625 C 10.222656 -0.0234375 9.242188 0.15625 8.171875 0.15625 Z M 8.171875 0.15625 "/></g></g></g><g fill="#c29450" fill-opacity="1"><g transform="translate(175.011508, 360.029569)"><g/></g></g><g fill="#c29450" fill-opacity="1"><g transform="translate(185.275281, 360.029569)"><g><path d="M 2.046875 -13.6875 L 4 -13.6875 L 4 -1.703125 L 11.421875 -1.703125 L 11.421875 0 L 2.046875 0 Z M 2.046875 -13.6875 "/></g></g></g><g fill="#c29450" fill-opacity="1"><g transform="translate(201.89097, 360.029569)"><g><path d="M 2.046875 -13.6875 L 4 -13.6875 L 4 0 L 2.046875 0 Z M 2.046875 -13.6875 "/></g></g></g><g fill="#c29450" fill-opacity="1"><g transform="translate(212.956064, 360.029569)"><g><path d="M 11.265625 -7.09375 C 12.054688 -6.875 12.675781 -6.472656 13.125 -5.890625 C 13.582031 -5.316406 13.8125 -4.582031 13.8125 -3.6875 C 13.8125 -2.507812 13.363281 -1.597656 12.46875 -0.953125 C 11.582031 -0.316406 10.285156 0 8.578125 0 L 2.046875 0 L 2.046875 -13.6875 L 8.1875 -13.6875 C 9.75 -13.6875 10.957031 -13.375 11.8125 -12.75 C 12.664062 -12.125 13.09375 -11.253906 13.09375 -10.140625 C 13.09375 -9.421875 12.925781 -8.800781 12.59375 -8.28125 C 12.257812 -7.757812 11.816406 -7.363281 11.265625 -7.09375 Z M 4 -12.09375 L 4 -7.71875 L 8.015625 -7.71875 C 9.015625 -7.71875 9.785156 -7.898438 10.328125 -8.265625 C 10.867188 -8.640625 11.140625 -9.1875 11.140625 -9.90625 C 11.140625 -10.625 10.867188 -11.164062 10.328125 -11.53125 C 9.785156 -11.90625 9.015625 -12.09375 8.015625 -12.09375 Z M 8.5 -1.578125 C 9.613281 -1.578125 10.445312 -1.757812 11 -2.125 C 11.5625 -2.488281 11.84375 -3.0625 11.84375 -3.84375 C 11.84375 -5.375 10.726562 -6.140625 8.5 -6.140625 L 4 -6.140625 L 4 -1.578125 Z M 8.5 -1.578125 "/></g></g></g><g fill="#c29450" fill-opacity="1"><g transform="translate(232.757472, 360.029569)"><g><path d="M 11.203125 0 L 8.25 -4.203125 C 7.882812 -4.171875 7.597656 -4.15625 7.390625 -4.15625 L 4 -4.15625 L 4 0 L 2.046875 0 L 2.046875 -13.6875 L 7.390625 -13.6875 C 9.160156 -13.6875 10.550781 -13.257812 11.5625 -12.40625 C 12.582031 -11.5625 13.09375 -10.394531 13.09375 -8.90625 C 13.09375 -7.851562 12.832031 -6.957031 12.3125 -6.21875 C 11.789062 -5.476562 11.050781 -4.9375 10.09375 -4.59375 L 13.328125 0 Z M 7.328125 -5.828125 C 8.566406 -5.828125 9.507812 -6.09375 10.15625 -6.625 C 10.8125 -7.15625 11.140625 -7.914062 11.140625 -8.90625 C 11.140625 -9.90625 10.8125 -10.664062 10.15625 -11.1875 C 9.507812 -11.71875 8.566406 -11.984375 7.328125 -11.984375 L 4 -11.984375 L 4 -5.828125 Z M 7.328125 -5.828125 "/></g></g></g><g fill="#c29450" fill-opacity="1"><g transform="translate(251.972547, 360.029569)"><g><path d="M 10.765625 -3.421875 L 3.5 -3.421875 L 2 0 L -0.015625 0 L 6.171875 -13.6875 L 8.109375 -13.6875 L 14.328125 0 L 12.28125 0 Z M 10.09375 -4.984375 L 7.140625 -11.6875 L 4.1875 -4.984375 Z M 10.09375 -4.984375 "/></g></g></g><g fill="#c29450" fill-opacity="1"><g transform="translate(271.285366, 360.029569)"><g><path d="M 11.203125 0 L 8.25 -4.203125 C 7.882812 -4.171875 7.597656 -4.15625 7.390625 -4.15625 L 4 -4.15625 L 4 0 L 2.046875 0 L 2.046875 -13.6875 L 7.390625 -13.6875 C 9.160156 -13.6875 10.550781 -13.257812 11.5625 -12.40625 C 12.582031 -11.5625 13.09375 -10.394531 13.09375 -8.90625 C 13.09375 -7.851562 12.832031 -6.957031 12.3125 -6.21875 C 11.789062 -5.476562 11.050781 -4.9375 10.09375 -4.59375 L 13.328125 0 Z M 7.328125 -5.828125 C 8.566406 -5.828125 9.507812 -6.09375 10.15625 -6.625 C 10.8125 -7.15625 11.140625 -7.914062 11.140625 -8.90625 C 11.140625 -9.90625 10.8125 -10.664062 10.15625 -11.1875 C 9.507812 -11.71875 8.566406 -11.984375 7.328125 -11.984375 L 4 -11.984375 L 4 -5.828125 Z M 7.328125 -5.828125 "/></g></g></g><g fill="#c29450" fill-opacity="1"><g transform="translate(290.500451, 360.029569)"><g><path d="M 7.296875 -4.734375 L 7.296875 0 L 5.359375 0 L 5.359375 -4.765625 L -0.078125 -13.6875 L 2.015625 -13.6875 L 6.390625 -6.46875 L 10.796875 -13.6875 L 12.71875 -13.6875 Z M 7.296875 -4.734375 "/></g></g></g></svg>