<svg xmlns="http://www.w3.org/2000/svg" xmlns:xlink="http://www.w3.org/1999/xlink" width="500" zoomAndPan="magnify" viewBox="0 0 375 283.499996" height="378" preserveAspectRatio="xMidYMid meet" version="1.0"><defs><clipPath id="8abbb81dd3"><path d="M 168.785156 71.664062 L 199.824219 71.664062 L 199.824219 102.699219 L 168.785156 102.699219 Z M 168.785156 71.664062 " clip-rule="nonzero"/></clipPath><clipPath id="24e3975125"><path d="M 184.304688 71.664062 C 175.734375 71.664062 168.785156 78.609375 168.785156 87.183594 C 168.785156 95.753906 175.734375 102.699219 184.304688 102.699219 C 192.875 102.699219 199.824219 95.753906 199.824219 87.183594 C 199.824219 78.609375 192.875 71.664062 184.304688 71.664062 Z M 184.304688 71.664062 " clip-rule="nonzero"/></clipPath><clipPath id="24c4f5da12"><path d="M 0.332031 141.035156 L 165.519531 141.035156 L 165.519531 282.859375 L 0.332031 282.859375 Z M 0.332031 141.035156 " clip-rule="nonzero"/></clipPath><clipPath id="fb4a76bca2"><path d="M 158.476562 259.03125 L 188 259.03125 L 188 282.859375 L 158.476562 282.859375 Z M 158.476562 259.03125 " clip-rule="nonzero"/></clipPath><clipPath id="ffb0acd2f3"><path d="M 209.550781 141.035156 L 374.660156 141.035156 L 374.660156 282.859375 L 209.550781 282.859375 Z M 209.550781 141.035156 " clip-rule="nonzero"/></clipPath><clipPath id="66b0759645"><path d="M 187.007812 259.03125 L 216.59375 259.03125 L 216.59375 282.859375 L 187.007812 282.859375 Z M 187.007812 259.03125 " clip-rule="nonzero"/></clipPath><clipPath id="6474787fcb"><path d="M 225 0.375 L 257 0.375 L 257 32 L 225 32 Z M 225 0.375 " clip-rule="nonzero"/></clipPath></defs><g clip-path="url(#8abbb81dd3)"><g clip-path="url(#24e3975125)"><path fill="#f6c275" d="M 168.785156 71.664062 L 199.824219 71.664062 L 199.824219 102.699219 L 168.785156 102.699219 Z M 168.785156 71.664062 " fill-opacity="1" fill-rule="nonzero"/></g></g><g clip-path="url(#24c4f5da12)"><path fill="#2f4f76" d="M 164.351562 281.492188 C 164.300781 281.472656 164.261719 281.460938 164.234375 281.453125 C 164.253906 281.464844 164.292969 281.484375 164.347656 281.503906 C 164.195312 281.953125 164.050781 282.40625 163.917969 282.859375 C 162.128906 282.335938 160.34375 281.828125 158.542969 281.339844 C 107.648438 267.328125 53.660156 264.527344 0.332031 273.511719 C 10.03125 239.414062 19.734375 205.320312 29.4375 171.226562 C 33.570312 156.699219 45.066406 145.449219 59.664062 141.582031 C 60.332031 141.402344 61.003906 141.226562 61.675781 141.054688 C 49.183594 179.0625 36.691406 217.070312 24.199219 255.078125 C 66.066406 249.738281 127.050781 259.339844 160.476562 276.296875 C 162.191406 277.164062 163.832031 278.054688 165.394531 278.964844 C 165 279.777344 164.648438 280.621094 164.351562 281.492188 " fill-opacity="1" fill-rule="nonzero"/></g><path fill="#196fa4" d="M 102.992188 118.167969 C 102.738281 118.222656 102.488281 118.277344 102.234375 118.332031 C 87.46875 121.570312 75.527344 132.402344 70.816406 146.769531 C 60.121094 179.402344 50.023438 210.183594 38.992188 243.839844 C 113.988281 240.335938 155.492188 266.910156 155.492188 266.910156 C 117.707031 233.648438 60.960938 233.78125 60.960938 233.78125 C 60.960938 233.78125 89.003906 155.652344 102.992188 118.167969 " fill-opacity="1" fill-rule="nonzero"/><path fill="#50a5cd" d="M 142.8125 100.203125 C 142.726562 100.222656 142.640625 100.238281 142.554688 100.257812 C 127.777344 103.453125 115.84375 114.328125 111.136719 128.691406 C 100.707031 160.5 90.859375 190.527344 80.101562 223.347656 C 136.484375 230.679688 160.238281 264.742188 160.238281 264.742188 C 148.585938 230.453125 100.625 216.785156 100.625 216.785156 C 100.625 216.785156 129.109375 136.933594 142.8125 100.203125 " fill-opacity="1" fill-rule="nonzero"/><g clip-path="url(#fb4a76bca2)"><path fill="#2f4f76" d="M 187.816406 259.214844 C 175.804688 259.214844 165.414062 266.179688 160.476562 276.296875 C 160.007812 277.25 159.585938 278.238281 159.21875 279.253906 C 158.972656 279.9375 158.75 280.636719 158.542969 281.339844 C 160.34375 281.828125 162.128906 282.335938 163.917969 282.859375 C 164.050781 282.40625 164.195312 281.953125 164.347656 281.503906 L 164.351562 281.492188 C 164.648438 280.621094 165 279.777344 165.394531 278.964844 C 169.378906 270.585938 177.925781 264.792969 187.816406 264.792969 L 187.816406 259.214844 " fill-opacity="1" fill-rule="nonzero"/></g><path fill="#50a5cd" d="M 221.769531 104.921875 C 240.59375 84.320312 248.414062 60.882812 244.066406 28.492188 C 255.773438 58.890625 256.253906 92.511719 234.328125 119.464844 C 197.074219 165.269531 129.210938 171.863281 126.339844 225.238281 C 116.878906 161.585938 182.0625 148.375 221.769531 104.921875 " fill-opacity="1" fill-rule="nonzero"/><path fill="#f6c275" d="M 165.472656 85.726562 C 165.472656 98.488281 174.308594 108.832031 185.214844 108.832031 C 196.117188 108.832031 204.957031 98.488281 204.957031 85.726562 C 204.957031 72.960938 196.117188 62.617188 185.214844 62.617188 C 174.308594 62.617188 165.472656 72.960938 165.472656 85.726562 " fill-opacity="1" fill-rule="nonzero"/><g clip-path="url(#ffb0acd2f3)"><path fill="#2f4f76" d="M 210.636719 281.492188 C 210.691406 281.472656 210.730469 281.460938 210.753906 281.453125 C 210.738281 281.464844 210.695312 281.484375 210.644531 281.503906 C 210.796875 281.953125 210.941406 282.40625 211.070312 282.859375 C 212.863281 282.335938 214.648438 281.828125 216.445312 281.339844 C 267.339844 267.328125 321.328125 264.527344 374.660156 273.511719 C 364.960938 239.414062 355.253906 205.320312 345.554688 171.226562 C 341.421875 156.699219 329.925781 145.449219 315.328125 141.582031 C 314.65625 141.402344 313.988281 141.226562 313.316406 141.054688 C 325.808594 179.0625 338.300781 217.070312 350.789062 255.078125 C 308.921875 249.738281 247.941406 259.339844 214.515625 276.296875 C 212.796875 277.164062 211.15625 278.054688 209.597656 278.964844 C 209.992188 279.777344 210.339844 280.621094 210.636719 281.492188 " fill-opacity="1" fill-rule="nonzero"/></g><path fill="#196fa4" d="M 272 118.167969 C 272.253906 118.222656 272.503906 118.277344 272.757812 118.332031 C 287.523438 121.570312 299.460938 132.402344 304.171875 146.769531 C 314.871094 179.402344 324.964844 210.183594 336 243.839844 C 261 240.335938 219.496094 266.910156 219.496094 266.910156 C 257.28125 233.648438 314.027344 233.78125 314.027344 233.78125 C 314.027344 233.78125 285.984375 155.652344 272 118.167969 " fill-opacity="1" fill-rule="nonzero"/><path fill="#50a5cd" d="M 214.484375 264.746094 C 214.484375 264.746094 238.234375 230.675781 294.621094 223.347656 C 284 190.957031 274.269531 161.285156 263.996094 129.941406 C 259.878906 136.144531 254.765625 141.726562 248.851562 146.527344 C 261.382812 181.144531 274.097656 216.78125 274.097656 216.78125 C 274.097656 216.78125 226.140625 230.453125 214.484375 264.746094 " fill-opacity="1" fill-rule="nonzero"/><g clip-path="url(#66b0759645)"><path fill="#2f4f76" d="M 187.175781 264.792969 C 197.066406 264.792969 205.613281 270.585938 209.597656 278.964844 C 209.992188 279.777344 210.339844 280.621094 210.636719 281.492188 L 210.644531 281.503906 C 210.796875 281.953125 210.941406 282.40625 211.070312 282.859375 C 212.863281 282.335938 214.648438 281.828125 216.445312 281.339844 C 216.242188 280.636719 216.015625 279.9375 215.773438 279.253906 C 215.40625 278.238281 214.984375 277.25 214.515625 276.296875 C 209.578125 266.179688 199.1875 259.214844 187.175781 259.214844 L 187.175781 264.792969 " fill-opacity="1" fill-rule="nonzero"/></g><path fill="#f6c275" d="M 233.695312 153.734375 C 251.402344 143.652344 264.945312 127.90625 269.945312 108.441406 C 271.332031 134.132812 258.566406 156.726562 238.023438 170.648438 C 203.324219 194.167969 152.859375 194.230469 133.574219 227.582031 C 141.496094 184.308594 195.636719 175.414062 233.695312 153.734375 " fill-opacity="1" fill-rule="nonzero"/><g clip-path="url(#6474787fcb)"><path fill="#f6cf95" d="M 225.792969 5.757812 C 237.148438 15.714844 237.613281 18 231.050781 31.601562 C 241.007812 20.246094 243.292969 19.78125 256.894531 26.34375 C 245.542969 16.386719 245.074219 14.101562 251.636719 0.5 C 241.679688 11.855469 239.394531 12.320312 225.792969 5.757812 " fill-opacity="1" fill-rule="nonzero"/></g><path fill="#f6cf95" d="M 272.871094 55.660156 C 276.785156 56.191406 277.214844 56.625 277.746094 60.539062 C 278.28125 56.625 278.710938 56.195312 282.625 55.664062 C 278.710938 55.128906 278.28125 54.695312 277.75 50.785156 C 277.214844 54.695312 276.785156 55.128906 272.871094 55.660156 " fill-opacity="1" fill-rule="nonzero"/><path fill="#f6cf95" d="M 204.570312 52.699219 C 212.523438 53.785156 213.398438 54.664062 214.476562 62.617188 C 215.5625 54.664062 216.441406 53.789062 224.394531 52.710938 C 216.441406 51.625 215.566406 50.746094 214.488281 42.792969 C 213.402344 50.746094 212.523438 51.621094 204.570312 52.699219 " fill-opacity="1" fill-rule="nonzero"/></svg>