<svg xmlns="http://www.w3.org/2000/svg" xmlns:xlink="http://www.w3.org/1999/xlink" width="500" zoomAndPan="magnify" viewBox="0 0 375 81.749997" height="109" preserveAspectRatio="xMidYMid meet" version="1.0"><defs><g/><clipPath id="14a053e5ef"><path d="M 1.320312 40.5625 L 48.953125 40.5625 L 48.953125 81.457031 L 1.320312 81.457031 Z M 1.320312 40.5625 " clip-rule="nonzero"/></clipPath><clipPath id="3f5592d354"><path d="M 46.921875 74.585938 L 55.453125 74.585938 L 55.453125 81.457031 L 46.921875 81.457031 Z M 46.921875 74.585938 " clip-rule="nonzero"/></clipPath><clipPath id="2bc15082e1"><path d="M 61.648438 40.5625 L 108.988281 40.5625 L 108.988281 81.457031 L 61.648438 81.457031 Z M 61.648438 40.5625 " clip-rule="nonzero"/></clipPath><clipPath id="770f3c9363"><path d="M 55.148438 74.585938 L 63.679688 74.585938 L 63.679688 81.457031 L 55.148438 81.457031 Z M 55.148438 74.585938 " clip-rule="nonzero"/></clipPath></defs><g clip-path="url(#14a053e5ef)"><path fill="#2f4f76" d="M 48.613281 81.0625 C 48.597656 81.054688 48.589844 81.054688 48.582031 81.050781 C 48.585938 81.054688 48.597656 81.058594 48.613281 81.066406 C 48.570312 81.195312 48.527344 81.328125 48.488281 81.457031 C 47.972656 81.304688 47.457031 81.160156 46.941406 81.019531 C 32.265625 76.976562 16.695312 76.171875 1.320312 78.761719 C 4.117188 68.929688 6.914062 59.097656 9.710938 49.269531 C 10.902344 45.078125 14.21875 41.835938 18.425781 40.71875 C 18.621094 40.667969 18.816406 40.617188 19.007812 40.566406 C 15.40625 51.527344 11.804688 62.488281 8.203125 73.445312 C 20.273438 71.90625 37.859375 74.675781 47.496094 79.5625 C 47.992188 79.816406 48.464844 80.070312 48.914062 80.332031 C 48.800781 80.570312 48.699219 80.8125 48.613281 81.0625 " fill-opacity="1" fill-rule="nonzero"/></g><path fill="#196fa4" d="M 30.921875 33.96875 C 30.847656 33.984375 30.777344 34 30.703125 34.015625 C 26.445312 34.949219 23.003906 38.074219 21.644531 42.214844 C 18.558594 51.625 15.648438 60.5 12.46875 70.207031 C 34.09375 69.195312 46.058594 76.859375 46.058594 76.859375 C 35.164062 67.265625 18.800781 67.304688 18.800781 67.304688 C 18.800781 67.304688 26.886719 44.777344 30.921875 33.96875 " fill-opacity="1" fill-rule="nonzero"/><path fill="#50a5cd" d="M 42.402344 28.789062 C 42.378906 28.792969 42.355469 28.796875 42.328125 28.804688 C 38.066406 29.726562 34.628906 32.859375 33.269531 37.003906 C 30.261719 46.175781 27.421875 54.832031 24.320312 64.296875 C 40.578125 66.410156 47.429688 76.234375 47.429688 76.234375 C 44.066406 66.347656 30.238281 62.402344 30.238281 62.402344 C 30.238281 62.402344 38.453125 39.378906 42.402344 28.789062 " fill-opacity="1" fill-rule="nonzero"/><g clip-path="url(#3f5592d354)"><path fill="#2f4f76" d="M 55.378906 74.640625 C 51.917969 74.640625 48.921875 76.648438 47.496094 79.5625 C 47.363281 79.839844 47.238281 80.125 47.132812 80.417969 C 47.0625 80.613281 47 80.816406 46.941406 81.019531 C 47.457031 81.160156 47.972656 81.304688 48.488281 81.457031 C 48.527344 81.328125 48.570312 81.195312 48.613281 81.066406 L 48.613281 81.0625 C 48.699219 80.8125 48.800781 80.570312 48.914062 80.332031 C 50.0625 77.917969 52.527344 76.246094 55.378906 76.246094 L 55.378906 74.640625 " fill-opacity="1" fill-rule="nonzero"/></g><path fill="#50a5cd" d="M 65.171875 30.148438 C 70.597656 24.207031 72.851562 17.449219 71.601562 8.109375 C 74.976562 16.875 75.113281 26.570312 68.792969 34.34375 C 58.050781 47.550781 38.480469 49.453125 37.652344 64.84375 C 34.925781 46.488281 53.71875 42.679688 65.171875 30.148438 " fill-opacity="1" fill-rule="nonzero"/><path fill="#f6c275" d="M 48.9375 24.613281 C 48.9375 28.292969 51.484375 31.277344 54.628906 31.277344 C 57.773438 31.277344 60.324219 28.292969 60.324219 24.613281 C 60.324219 20.933594 57.773438 17.949219 54.628906 17.949219 C 51.484375 17.949219 48.9375 20.933594 48.9375 24.613281 " fill-opacity="1" fill-rule="nonzero"/><g clip-path="url(#2bc15082e1)"><path fill="#2f4f76" d="M 61.960938 81.0625 C 61.976562 81.054688 61.988281 81.054688 61.996094 81.050781 C 61.988281 81.054688 61.976562 81.058594 61.960938 81.066406 C 62.007812 81.195312 62.046875 81.328125 62.085938 81.457031 C 62.601562 81.304688 63.117188 81.160156 63.636719 81.019531 C 78.3125 76.976562 93.878906 76.171875 109.253906 78.761719 C 106.457031 68.929688 103.660156 59.097656 100.863281 49.269531 C 99.671875 45.078125 96.355469 41.835938 92.148438 40.71875 C 91.953125 40.667969 91.761719 40.617188 91.566406 40.566406 C 95.167969 51.527344 98.769531 62.488281 102.375 73.445312 C 90.300781 71.90625 72.71875 74.675781 63.078125 79.5625 C 62.582031 79.816406 62.109375 80.070312 61.660156 80.332031 C 61.773438 80.570312 61.875 80.8125 61.960938 81.0625 " fill-opacity="1" fill-rule="nonzero"/></g><path fill="#196fa4" d="M 79.652344 33.96875 C 79.726562 33.984375 79.800781 34 79.871094 34.015625 C 84.128906 34.949219 87.574219 38.074219 88.929688 42.214844 C 92.015625 51.625 94.925781 60.5 98.109375 70.207031 C 76.484375 69.195312 64.515625 76.859375 64.515625 76.859375 C 75.410156 67.265625 91.773438 67.304688 91.773438 67.304688 C 91.773438 67.304688 83.6875 44.777344 79.652344 33.96875 " fill-opacity="1" fill-rule="nonzero"/><path fill="#50a5cd" d="M 63.070312 76.234375 C 63.070312 76.234375 69.917969 66.410156 86.175781 64.296875 C 83.113281 54.957031 80.308594 46.402344 77.347656 37.363281 C 76.160156 39.152344 74.683594 40.761719 72.980469 42.144531 C 76.59375 52.128906 80.257812 62.402344 80.257812 62.402344 C 80.257812 62.402344 66.429688 66.34375 63.070312 76.234375 " fill-opacity="1" fill-rule="nonzero"/><g clip-path="url(#770f3c9363)"><path fill="#2f4f76" d="M 55.195312 76.246094 C 58.046875 76.246094 60.511719 77.917969 61.660156 80.332031 C 61.773438 80.570312 61.875 80.8125 61.960938 81.0625 L 61.960938 81.066406 C 62.007812 81.195312 62.046875 81.328125 62.085938 81.457031 C 62.601562 81.304688 63.117188 81.160156 63.636719 81.019531 C 63.578125 80.816406 63.511719 80.613281 63.441406 80.417969 C 63.335938 80.125 63.214844 79.839844 63.078125 79.5625 C 61.65625 76.648438 58.660156 74.640625 55.195312 74.640625 L 55.195312 76.246094 " fill-opacity="1" fill-rule="nonzero"/></g><path fill="#f6c275" d="M 68.609375 44.222656 C 73.714844 41.316406 77.621094 36.777344 79.0625 31.164062 C 79.460938 38.570312 75.78125 45.085938 69.859375 49.101562 C 59.851562 55.882812 45.300781 55.902344 39.738281 65.515625 C 42.023438 53.039062 57.636719 50.476562 68.609375 44.222656 " fill-opacity="1" fill-rule="nonzero"/><path fill="#f6cf95" d="M 66.332031 1.554688 C 69.605469 4.425781 69.738281 5.085938 67.847656 9.007812 C 70.71875 5.734375 71.378906 5.597656 75.300781 7.492188 C 72.023438 4.621094 71.890625 3.960938 73.78125 0.0390625 C 70.910156 3.3125 70.253906 3.449219 66.332031 1.554688 " fill-opacity="1" fill-rule="nonzero"/><path fill="#f6cf95" d="M 79.90625 15.945312 C 81.035156 16.097656 81.15625 16.222656 81.3125 17.351562 C 81.464844 16.222656 81.589844 16.097656 82.71875 15.945312 C 81.589844 15.792969 81.464844 15.667969 81.3125 14.539062 C 81.160156 15.667969 81.035156 15.792969 79.90625 15.945312 " fill-opacity="1" fill-rule="nonzero"/><path fill="#f6cf95" d="M 60.210938 15.089844 C 62.503906 15.402344 62.757812 15.65625 63.066406 17.949219 C 63.382812 15.65625 63.632812 15.40625 65.925781 15.09375 C 63.632812 14.78125 63.382812 14.527344 63.070312 12.234375 C 62.757812 14.527344 62.503906 14.78125 60.210938 15.089844 " fill-opacity="1" fill-rule="nonzero"/><g fill="#2f4f76" fill-opacity="1"><g transform="translate(110.967016, 53.659922)"><g><path d="M 2.828125 -23.875 L 8.359375 -23.875 L 8.359375 -4.5 L 20.328125 -4.5 L 20.328125 0 L 2.828125 0 Z M 2.828125 -23.875 "/></g></g></g><g fill="#2f4f76" fill-opacity="1"><g transform="translate(135.216479, 53.659922)"><g><path d="M 21.3125 -4.4375 L 21.3125 0 L 2.828125 0 L 2.828125 -23.875 L 20.875 -23.875 L 20.875 -19.4375 L 8.328125 -19.4375 L 8.328125 -14.25 L 19.40625 -14.25 L 19.40625 -9.953125 L 8.328125 -9.953125 L 8.328125 -4.4375 Z M 21.3125 -4.4375 "/></g></g></g><g fill="#2f4f76" fill-opacity="1"><g transform="translate(161.750883, 53.659922)"><g><path d="M 21.3125 -4.4375 L 21.3125 0 L 2.828125 0 L 2.828125 -23.875 L 20.875 -23.875 L 20.875 -19.4375 L 8.328125 -19.4375 L 8.328125 -14.25 L 19.40625 -14.25 L 19.40625 -9.953125 L 8.328125 -9.953125 L 8.328125 -4.4375 Z M 21.3125 -4.4375 "/></g></g></g><g fill="#2f4f76" fill-opacity="1"><g transform="translate(188.285285, 53.659922)"><g/></g></g><g fill="#2f4f76" fill-opacity="1"><g transform="translate(201.587506, 53.659922)"><g><path d="M 14.25 0.40625 C 11.820312 0.40625 9.625 -0.117188 7.65625 -1.171875 C 5.6875 -2.234375 4.140625 -3.703125 3.015625 -5.578125 C 1.890625 -7.453125 1.328125 -9.570312 1.328125 -11.9375 C 1.328125 -14.300781 1.890625 -16.421875 3.015625 -18.296875 C 4.140625 -20.171875 5.6875 -21.632812 7.65625 -22.6875 C 9.625 -23.75 11.835938 -24.28125 14.296875 -24.28125 C 16.359375 -24.28125 18.222656 -23.914062 19.890625 -23.1875 C 21.566406 -22.46875 22.972656 -21.425781 24.109375 -20.0625 L 20.5625 -16.78125 C 18.945312 -18.644531 16.945312 -19.578125 14.5625 -19.578125 C 13.082031 -19.578125 11.765625 -19.253906 10.609375 -18.609375 C 9.453125 -17.960938 8.546875 -17.054688 7.890625 -15.890625 C 7.242188 -14.734375 6.921875 -13.414062 6.921875 -11.9375 C 6.921875 -10.457031 7.242188 -9.132812 7.890625 -7.96875 C 8.546875 -6.8125 9.453125 -5.910156 10.609375 -5.265625 C 11.765625 -4.617188 13.082031 -4.296875 14.5625 -4.296875 C 16.945312 -4.296875 18.945312 -5.238281 20.5625 -7.125 L 24.109375 -3.859375 C 22.972656 -2.472656 21.5625 -1.414062 19.875 -0.6875 C 18.195312 0.0390625 16.320312 0.40625 14.25 0.40625 Z M 14.25 0.40625 "/></g></g></g><g fill="#2f4f76" fill-opacity="1"><g transform="translate(230.23634, 53.659922)"><g><path d="M 14.390625 0.40625 C 11.910156 0.40625 9.675781 -0.125 7.6875 -1.1875 C 5.695312 -2.257812 4.140625 -3.734375 3.015625 -5.609375 C 1.890625 -7.484375 1.328125 -9.59375 1.328125 -11.9375 C 1.328125 -14.28125 1.890625 -16.390625 3.015625 -18.265625 C 4.140625 -20.140625 5.695312 -21.609375 7.6875 -22.671875 C 9.675781 -23.742188 11.910156 -24.28125 14.390625 -24.28125 C 16.867188 -24.28125 19.097656 -23.742188 21.078125 -22.671875 C 23.054688 -21.609375 24.613281 -20.140625 25.75 -18.265625 C 26.882812 -16.390625 27.453125 -14.28125 27.453125 -11.9375 C 27.453125 -9.59375 26.882812 -7.484375 25.75 -5.609375 C 24.613281 -3.734375 23.054688 -2.257812 21.078125 -1.1875 C 19.097656 -0.125 16.867188 0.40625 14.390625 0.40625 Z M 14.390625 -4.296875 C 15.804688 -4.296875 17.082031 -4.617188 18.21875 -5.265625 C 19.351562 -5.910156 20.242188 -6.8125 20.890625 -7.96875 C 21.535156 -9.132812 21.859375 -10.457031 21.859375 -11.9375 C 21.859375 -13.414062 21.535156 -14.734375 20.890625 -15.890625 C 20.242188 -17.054688 19.351562 -17.960938 18.21875 -18.609375 C 17.082031 -19.253906 15.804688 -19.578125 14.390625 -19.578125 C 12.984375 -19.578125 11.710938 -19.253906 10.578125 -18.609375 C 9.441406 -17.960938 8.546875 -17.054688 7.890625 -15.890625 C 7.242188 -14.734375 6.921875 -13.414062 6.921875 -11.9375 C 6.921875 -10.457031 7.242188 -9.132812 7.890625 -7.96875 C 8.546875 -6.8125 9.441406 -5.910156 10.578125 -5.265625 C 11.710938 -4.617188 12.984375 -4.296875 14.390625 -4.296875 Z M 14.390625 -4.296875 "/></g></g></g><g fill="#2f4f76" fill-opacity="1"><g transform="translate(262.670661, 53.659922)"><g><path d="M 13.4375 0.40625 C 10.03125 0.40625 7.375 -0.535156 5.46875 -2.421875 C 3.570312 -4.304688 2.625 -7 2.625 -10.5 L 2.625 -23.875 L 8.15625 -23.875 L 8.15625 -10.703125 C 8.15625 -6.429688 9.925781 -4.296875 13.46875 -4.296875 C 15.195312 -4.296875 16.515625 -4.8125 17.421875 -5.84375 C 18.335938 -6.882812 18.796875 -8.503906 18.796875 -10.703125 L 18.796875 -23.875 L 24.25 -23.875 L 24.25 -10.5 C 24.25 -7 23.300781 -4.304688 21.40625 -2.421875 C 19.507812 -0.535156 16.851562 0.40625 13.4375 0.40625 Z M 13.4375 0.40625 "/></g></g></g><g fill="#2f4f76" fill-opacity="1"><g transform="translate(293.195195, 53.659922)"><g><path d="M 24.734375 -23.875 L 24.734375 0 L 20.1875 0 L 8.28125 -14.5 L 8.28125 0 L 2.828125 0 L 2.828125 -23.875 L 7.40625 -23.875 L 19.265625 -9.375 L 19.265625 -23.875 Z M 24.734375 -23.875 "/></g></g></g><g fill="#2f4f76" fill-opacity="1"><g transform="translate(324.401805, 53.659922)"><g><path d="M 7.78125 -19.375 L 0.140625 -19.375 L 0.140625 -23.875 L 20.9375 -23.875 L 20.9375 -19.375 L 13.296875 -19.375 L 13.296875 0 L 7.78125 0 Z M 7.78125 -19.375 "/></g></g></g><g fill="#2f4f76" fill-opacity="1"><g transform="translate(349.128726, 53.659922)"><g><path d="M 14.296875 -8.453125 L 14.296875 0 L 8.765625 0 L 8.765625 -8.53125 L -0.484375 -23.875 L 5.390625 -23.875 L 11.765625 -13.265625 L 18.140625 -23.875 L 23.5625 -23.875 Z M 14.296875 -8.453125 "/></g></g></g><g fill="#c29450" fill-opacity="1"><g transform="translate(142.950501, 78.129672)"><g><path d="M 6.21875 -11.515625 C 7.707031 -11.515625 8.878906 -11.15625 9.734375 -10.4375 C 10.597656 -9.726562 11.03125 -8.75 11.03125 -7.5 C 11.03125 -6.25 10.597656 -5.265625 9.734375 -4.546875 C 8.878906 -3.835938 7.707031 -3.484375 6.21875 -3.484375 L 3.375 -3.484375 L 3.375 0 L 1.734375 0 L 1.734375 -11.515625 Z M 6.171875 -4.921875 C 7.210938 -4.921875 8.003906 -5.140625 8.546875 -5.578125 C 9.097656 -6.023438 9.375 -6.664062 9.375 -7.5 C 9.375 -8.332031 9.097656 -8.96875 8.546875 -9.40625 C 8.003906 -9.851562 7.210938 -10.078125 6.171875 -10.078125 L 3.375 -10.078125 L 3.375 -4.921875 Z M 6.171875 -4.921875 "/></g></g></g><g fill="#c29450" fill-opacity="1"><g transform="translate(159.041934, 78.129672)"><g><path d="M 6.5 0.125 C 4.96875 0.125 3.769531 -0.3125 2.90625 -1.1875 C 2.050781 -2.0625 1.625 -3.320312 1.625 -4.96875 L 1.625 -11.515625 L 3.28125 -11.515625 L 3.28125 -5.03125 C 3.28125 -2.5625 4.359375 -1.328125 6.515625 -1.328125 C 7.566406 -1.328125 8.367188 -1.628906 8.921875 -2.234375 C 9.484375 -2.847656 9.765625 -3.78125 9.765625 -5.03125 L 9.765625 -11.515625 L 11.375 -11.515625 L 11.375 -4.96875 C 11.375 -3.3125 10.941406 -2.046875 10.078125 -1.171875 C 9.222656 -0.304688 8.03125 0.125 6.5 0.125 Z M 6.5 0.125 "/></g></g></g><g fill="#c29450" fill-opacity="1"><g transform="translate(176.268487, 78.129672)"><g><path d="M 9.484375 -5.96875 C 10.148438 -5.78125 10.671875 -5.441406 11.046875 -4.953125 C 11.429688 -4.472656 11.625 -3.859375 11.625 -3.109375 C 11.625 -2.109375 11.25 -1.335938 10.5 -0.796875 C 9.75 -0.265625 8.65625 0 7.21875 0 L 1.734375 0 L 1.734375 -11.515625 L 6.890625 -11.515625 C 8.210938 -11.515625 9.234375 -11.25 9.953125 -10.71875 C 10.671875 -10.195312 11.03125 -9.472656 11.03125 -8.546875 C 11.03125 -7.941406 10.890625 -7.414062 10.609375 -6.96875 C 10.328125 -6.53125 9.953125 -6.195312 9.484375 -5.96875 Z M 3.375 -10.1875 L 3.375 -6.5 L 6.75 -6.5 C 7.59375 -6.5 8.238281 -6.65625 8.6875 -6.96875 C 9.144531 -7.28125 9.375 -7.738281 9.375 -8.34375 C 9.375 -8.945312 9.144531 -9.40625 8.6875 -9.71875 C 8.238281 -10.03125 7.59375 -10.1875 6.75 -10.1875 Z M 7.15625 -1.328125 C 8.09375 -1.328125 8.796875 -1.476562 9.265625 -1.78125 C 9.734375 -2.09375 9.96875 -2.578125 9.96875 -3.234375 C 9.96875 -4.523438 9.03125 -5.171875 7.15625 -5.171875 L 3.375 -5.171875 L 3.375 -1.328125 Z M 7.15625 -1.328125 "/></g></g></g><g fill="#c29450" fill-opacity="1"><g transform="translate(192.935707, 78.129672)"><g><path d="M 1.734375 -11.515625 L 3.375 -11.515625 L 3.375 -1.4375 L 9.609375 -1.4375 L 9.609375 0 L 1.734375 0 Z M 1.734375 -11.515625 "/></g></g></g><g fill="#c29450" fill-opacity="1"><g transform="translate(206.921409, 78.129672)"><g><path d="M 1.734375 -11.515625 L 3.375 -11.515625 L 3.375 0 L 1.734375 0 Z M 1.734375 -11.515625 "/></g></g></g><g fill="#c29450" fill-opacity="1"><g transform="translate(216.235021, 78.129672)"><g><path d="M 6.875 0.125 C 5.726562 0.125 4.691406 -0.128906 3.765625 -0.640625 C 2.835938 -1.148438 2.109375 -1.847656 1.578125 -2.734375 C 1.054688 -3.628906 0.796875 -4.640625 0.796875 -5.765625 C 0.796875 -6.878906 1.054688 -7.882812 1.578125 -8.78125 C 2.109375 -9.675781 2.835938 -10.378906 3.765625 -10.890625 C 4.703125 -11.398438 5.742188 -11.65625 6.890625 -11.65625 C 7.796875 -11.65625 8.617188 -11.503906 9.359375 -11.203125 C 10.109375 -10.898438 10.742188 -10.453125 11.265625 -9.859375 L 10.203125 -8.8125 C 9.335938 -9.726562 8.253906 -10.1875 6.953125 -10.1875 C 6.097656 -10.1875 5.328125 -9.992188 4.640625 -9.609375 C 3.953125 -9.222656 3.410156 -8.691406 3.015625 -8.015625 C 2.628906 -7.347656 2.4375 -6.597656 2.4375 -5.765625 C 2.4375 -4.929688 2.628906 -4.175781 3.015625 -3.5 C 3.410156 -2.820312 3.953125 -2.289062 4.640625 -1.90625 C 5.328125 -1.519531 6.097656 -1.328125 6.953125 -1.328125 C 8.242188 -1.328125 9.328125 -1.789062 10.203125 -2.71875 L 11.265625 -1.671875 C 10.742188 -1.085938 10.101562 -0.640625 9.34375 -0.328125 C 8.59375 -0.0234375 7.769531 0.125 6.875 0.125 Z M 6.875 0.125 "/></g></g></g><g fill="#c29450" fill-opacity="1"><g transform="translate(232.342905, 78.129672)"><g/></g></g><g fill="#c29450" fill-opacity="1"><g transform="translate(240.982024, 78.129672)"><g><path d="M 1.734375 -11.515625 L 3.375 -11.515625 L 3.375 -1.4375 L 9.609375 -1.4375 L 9.609375 0 L 1.734375 0 Z M 1.734375 -11.515625 "/></g></g></g><g fill="#c29450" fill-opacity="1"><g transform="translate(254.967727, 78.129672)"><g><path d="M 1.734375 -11.515625 L 3.375 -11.515625 L 3.375 0 L 1.734375 0 Z M 1.734375 -11.515625 "/></g></g></g><g fill="#c29450" fill-opacity="1"><g transform="translate(264.281338, 78.129672)"><g><path d="M 9.484375 -5.96875 C 10.148438 -5.78125 10.671875 -5.441406 11.046875 -4.953125 C 11.429688 -4.472656 11.625 -3.859375 11.625 -3.109375 C 11.625 -2.109375 11.25 -1.335938 10.5 -0.796875 C 9.75 -0.265625 8.65625 0 7.21875 0 L 1.734375 0 L 1.734375 -11.515625 L 6.890625 -11.515625 C 8.210938 -11.515625 9.234375 -11.25 9.953125 -10.71875 C 10.671875 -10.195312 11.03125 -9.472656 11.03125 -8.546875 C 11.03125 -7.941406 10.890625 -7.414062 10.609375 -6.96875 C 10.328125 -6.53125 9.953125 -6.195312 9.484375 -5.96875 Z M 3.375 -10.1875 L 3.375 -6.5 L 6.75 -6.5 C 7.59375 -6.5 8.238281 -6.65625 8.6875 -6.96875 C 9.144531 -7.28125 9.375 -7.738281 9.375 -8.34375 C 9.375 -8.945312 9.144531 -9.40625 8.6875 -9.71875 C 8.238281 -10.03125 7.59375 -10.1875 6.75 -10.1875 Z M 7.15625 -1.328125 C 8.09375 -1.328125 8.796875 -1.476562 9.265625 -1.78125 C 9.734375 -2.09375 9.96875 -2.578125 9.96875 -3.234375 C 9.96875 -4.523438 9.03125 -5.171875 7.15625 -5.171875 L 3.375 -5.171875 L 3.375 -1.328125 Z M 7.15625 -1.328125 "/></g></g></g><g fill="#c29450" fill-opacity="1"><g transform="translate(280.948562, 78.129672)"><g><path d="M 9.421875 0 L 6.9375 -3.53125 C 6.632812 -3.507812 6.394531 -3.5 6.21875 -3.5 L 3.375 -3.5 L 3.375 0 L 1.734375 0 L 1.734375 -11.515625 L 6.21875 -11.515625 C 7.707031 -11.515625 8.878906 -11.15625 9.734375 -10.4375 C 10.597656 -9.726562 11.03125 -8.75 11.03125 -7.5 C 11.03125 -6.613281 10.804688 -5.859375 10.359375 -5.234375 C 9.921875 -4.609375 9.296875 -4.148438 8.484375 -3.859375 L 11.21875 0 Z M 6.171875 -4.90625 C 7.210938 -4.90625 8.003906 -5.128906 8.546875 -5.578125 C 9.097656 -6.023438 9.375 -6.664062 9.375 -7.5 C 9.375 -8.332031 9.097656 -8.96875 8.546875 -9.40625 C 8.003906 -9.851562 7.210938 -10.078125 6.171875 -10.078125 L 3.375 -10.078125 L 3.375 -4.90625 Z M 6.171875 -4.90625 "/></g></g></g><g fill="#c29450" fill-opacity="1"><g transform="translate(297.122243, 78.129672)"><g><path d="M 9.0625 -2.875 L 2.9375 -2.875 L 1.671875 0 L -0.015625 0 L 5.203125 -11.515625 L 6.828125 -11.515625 L 12.0625 0 L 10.328125 0 Z M 8.484375 -4.203125 L 6 -9.84375 L 3.515625 -4.203125 Z M 8.484375 -4.203125 "/></g></g></g><g fill="#c29450" fill-opacity="1"><g transform="translate(313.378178, 78.129672)"><g><path d="M 9.421875 0 L 6.9375 -3.53125 C 6.632812 -3.507812 6.394531 -3.5 6.21875 -3.5 L 3.375 -3.5 L 3.375 0 L 1.734375 0 L 1.734375 -11.515625 L 6.21875 -11.515625 C 7.707031 -11.515625 8.878906 -11.15625 9.734375 -10.4375 C 10.597656 -9.726562 11.03125 -8.75 11.03125 -7.5 C 11.03125 -6.613281 10.804688 -5.859375 10.359375 -5.234375 C 9.921875 -4.609375 9.296875 -4.148438 8.484375 -3.859375 L 11.21875 0 Z M 6.171875 -4.90625 C 7.210938 -4.90625 8.003906 -5.128906 8.546875 -5.578125 C 9.097656 -6.023438 9.375 -6.664062 9.375 -7.5 C 9.375 -8.332031 9.097656 -8.96875 8.546875 -9.40625 C 8.003906 -9.851562 7.210938 -10.078125 6.171875 -10.078125 L 3.375 -10.078125 L 3.375 -4.90625 Z M 6.171875 -4.90625 "/></g></g></g><g fill="#c29450" fill-opacity="1"><g transform="translate(329.551859, 78.129672)"><g><path d="M 6.140625 -3.984375 L 6.140625 0 L 4.515625 0 L 4.515625 -4.015625 L -0.0625 -11.515625 L 1.6875 -11.515625 L 5.375 -5.453125 L 9.078125 -11.515625 L 10.703125 -11.515625 Z M 6.140625 -3.984375 "/></g></g></g></svg>