<svg xmlns="http://www.w3.org/2000/svg" xmlns:xlink="http://www.w3.org/1999/xlink" width="500" zoomAndPan="magnify" viewBox="0 0 375 112.499997" height="150" preserveAspectRatio="xMidYMid meet" version="1.0"><defs><g/><clipPath id="cc66349a9e"><path d="M 3.257812 55.769531 L 60.402344 55.769531 L 60.402344 104.832031 L 3.257812 104.832031 Z M 3.257812 55.769531 " clip-rule="nonzero"/></clipPath><clipPath id="2a4fea928c"><path d="M 57.964844 96.585938 L 68.199219 96.585938 L 68.199219 104.832031 L 57.964844 104.832031 Z M 57.964844 96.585938 " clip-rule="nonzero"/></clipPath><clipPath id="30ef0cea77"><path d="M 75.628906 55.769531 L 132.433594 55.769531 L 132.433594 104.832031 L 75.628906 104.832031 Z M 75.628906 55.769531 " clip-rule="nonzero"/></clipPath><clipPath id="4f392acc19"><path d="M 67.832031 96.585938 L 78.066406 96.585938 L 78.066406 104.832031 L 67.832031 104.832031 Z M 67.832031 96.585938 " clip-rule="nonzero"/></clipPath><clipPath id="f7bed14195"><path d="M 81 7.117188 L 93 7.117188 L 93 18 L 81 18 Z M 81 7.117188 " clip-rule="nonzero"/></clipPath></defs><g clip-path="url(#cc66349a9e)"><path fill="#2f4f76" d="M 59.996094 104.355469 C 59.976562 104.351562 59.964844 104.347656 59.957031 104.34375 C 59.960938 104.347656 59.976562 104.355469 59.996094 104.363281 C 59.941406 104.515625 59.890625 104.675781 59.847656 104.832031 C 59.226562 104.648438 58.609375 104.472656 57.988281 104.304688 C 40.382812 99.457031 21.707031 98.488281 3.257812 101.597656 C 6.613281 89.800781 9.972656 78.007812 13.328125 66.214844 C 14.757812 61.191406 18.734375 57.296875 23.78125 55.960938 C 24.015625 55.898438 24.246094 55.835938 24.476562 55.777344 C 20.15625 68.925781 15.835938 82.074219 11.515625 95.222656 C 25.996094 93.375 47.09375 96.695312 58.65625 102.558594 C 59.25 102.859375 59.816406 103.167969 60.355469 103.484375 C 60.21875 103.765625 60.097656 104.058594 59.996094 104.355469 " fill-opacity="1" fill-rule="nonzero"/></g><path fill="#196fa4" d="M 38.769531 47.859375 C 38.683594 47.878906 38.597656 47.898438 38.507812 47.917969 C 33.402344 49.039062 29.269531 52.785156 27.640625 57.753906 C 23.941406 69.042969 20.449219 79.691406 16.632812 91.332031 C 42.574219 90.121094 56.933594 99.3125 56.933594 99.3125 C 43.859375 87.808594 24.230469 87.851562 24.230469 87.851562 C 24.230469 87.851562 33.933594 60.828125 38.769531 47.859375 " fill-opacity="1" fill-rule="nonzero"/><path fill="#50a5cd" d="M 52.546875 41.644531 C 52.515625 41.652344 52.484375 41.660156 52.457031 41.664062 C 47.34375 42.769531 43.214844 46.53125 41.585938 51.5 C 37.980469 62.503906 34.574219 72.890625 30.851562 84.242188 C 50.355469 86.78125 58.574219 98.5625 58.574219 98.5625 C 54.542969 86.703125 37.953125 81.972656 37.953125 81.972656 C 37.953125 81.972656 47.804688 54.351562 52.546875 41.644531 " fill-opacity="1" fill-rule="nonzero"/><g clip-path="url(#2a4fea928c)"><path fill="#2f4f76" d="M 68.113281 96.652344 C 63.957031 96.652344 60.363281 99.0625 58.65625 102.558594 C 58.492188 102.890625 58.347656 103.230469 58.21875 103.582031 C 58.136719 103.820312 58.058594 104.0625 57.988281 104.304688 C 58.609375 104.472656 59.226562 104.648438 59.847656 104.832031 C 59.890625 104.675781 59.941406 104.515625 59.996094 104.363281 L 59.996094 104.355469 C 60.097656 104.058594 60.21875 103.765625 60.355469 103.484375 C 61.734375 100.585938 64.691406 98.582031 68.113281 98.582031 L 68.113281 96.652344 " fill-opacity="1" fill-rule="nonzero"/></g><path fill="#50a5cd" d="M 79.859375 43.277344 C 86.371094 36.152344 89.074219 28.042969 87.570312 16.839844 C 91.621094 27.355469 91.785156 38.984375 84.203125 48.308594 C 71.316406 64.152344 47.839844 66.433594 46.847656 84.898438 C 43.574219 62.878906 66.121094 58.308594 79.859375 43.277344 " fill-opacity="1" fill-rule="nonzero"/><path fill="#f6c275" d="M 60.382812 36.636719 C 60.382812 41.054688 63.441406 44.632812 67.214844 44.632812 C 70.984375 44.632812 74.042969 41.054688 74.042969 36.636719 C 74.042969 32.222656 70.984375 28.644531 67.214844 28.644531 C 63.441406 28.644531 60.382812 32.222656 60.382812 36.636719 " fill-opacity="1" fill-rule="nonzero"/><g clip-path="url(#30ef0cea77)"><path fill="#2f4f76" d="M 76.007812 104.355469 C 76.027344 104.351562 76.039062 104.347656 76.046875 104.34375 C 76.042969 104.347656 76.027344 104.355469 76.007812 104.363281 C 76.0625 104.515625 76.113281 104.675781 76.15625 104.832031 C 76.777344 104.648438 77.394531 104.472656 78.015625 104.304688 C 95.621094 99.457031 114.296875 98.488281 132.746094 101.597656 C 129.390625 89.800781 126.035156 78.007812 122.675781 66.214844 C 121.246094 61.191406 117.273438 57.296875 112.222656 55.960938 C 111.988281 55.898438 111.757812 55.835938 111.523438 55.777344 C 115.847656 68.925781 120.167969 82.074219 124.488281 95.222656 C 110.007812 93.375 88.910156 96.695312 77.347656 102.558594 C 76.753906 102.859375 76.1875 103.167969 75.648438 103.484375 C 75.785156 103.765625 75.90625 104.058594 76.007812 104.355469 " fill-opacity="1" fill-rule="nonzero"/></g><path fill="#196fa4" d="M 97.234375 47.859375 C 97.320312 47.878906 97.40625 47.898438 97.496094 47.917969 C 102.601562 49.039062 106.734375 52.785156 108.363281 57.753906 C 112.0625 69.042969 115.554688 79.691406 119.371094 91.332031 C 93.429688 90.121094 79.070312 99.3125 79.070312 99.3125 C 92.144531 87.808594 111.773438 87.851562 111.773438 87.851562 C 111.773438 87.851562 102.070312 60.828125 97.234375 47.859375 " fill-opacity="1" fill-rule="nonzero"/><path fill="#50a5cd" d="M 77.339844 98.566406 C 77.339844 98.566406 85.554688 86.777344 105.058594 84.242188 C 101.386719 73.039062 98.019531 62.777344 94.464844 51.933594 C 93.042969 54.078125 91.269531 56.011719 89.226562 57.671875 C 93.5625 69.644531 97.960938 81.972656 97.960938 81.972656 C 97.960938 81.972656 81.371094 86.703125 77.339844 98.566406 " fill-opacity="1" fill-rule="nonzero"/><g clip-path="url(#4f392acc19)"><path fill="#2f4f76" d="M 67.890625 98.582031 C 71.3125 98.582031 74.269531 100.585938 75.648438 103.484375 C 75.785156 103.765625 75.90625 104.058594 76.007812 104.355469 L 76.007812 104.363281 C 76.0625 104.515625 76.113281 104.675781 76.15625 104.832031 C 76.777344 104.648438 77.394531 104.472656 78.015625 104.304688 C 77.945312 104.0625 77.867188 103.820312 77.785156 103.582031 C 77.65625 103.230469 77.511719 102.890625 77.347656 102.558594 C 75.640625 99.0625 72.046875 96.652344 67.890625 96.652344 L 67.890625 98.582031 " fill-opacity="1" fill-rule="nonzero"/></g><path fill="#f6c275" d="M 83.984375 60.164062 C 90.109375 56.675781 94.792969 51.230469 96.523438 44.496094 C 97.003906 53.382812 92.585938 61.199219 85.480469 66.015625 C 73.476562 74.148438 56.019531 74.171875 49.351562 85.707031 C 52.089844 70.738281 70.820312 67.664062 83.984375 60.164062 " fill-opacity="1" fill-rule="nonzero"/><g clip-path="url(#f7bed14195)"><path fill="#f6cf95" d="M 81.25 8.976562 C 85.175781 12.421875 85.339844 13.210938 83.070312 17.917969 C 86.511719 13.988281 87.304688 13.828125 92.007812 16.097656 C 88.082031 12.652344 87.917969 11.863281 90.191406 7.15625 C 86.746094 11.085938 85.953125 11.246094 81.25 8.976562 " fill-opacity="1" fill-rule="nonzero"/></g><path fill="#f6cf95" d="M 97.535156 26.238281 C 98.890625 26.421875 99.039062 26.570312 99.222656 27.925781 C 99.40625 26.570312 99.554688 26.421875 100.910156 26.238281 C 99.554688 26.054688 99.40625 25.90625 99.222656 24.550781 C 99.039062 25.90625 98.890625 26.054688 97.535156 26.238281 " fill-opacity="1" fill-rule="nonzero"/><path fill="#f6cf95" d="M 73.910156 25.214844 C 76.660156 25.589844 76.964844 25.894531 77.335938 28.644531 C 77.710938 25.894531 78.015625 25.589844 80.765625 25.21875 C 78.015625 24.84375 77.710938 24.539062 77.339844 21.789062 C 76.964844 24.539062 76.660156 24.839844 73.910156 25.214844 " fill-opacity="1" fill-rule="nonzero"/><g fill="#2f4f76" fill-opacity="1"><g transform="translate(132.749611, 78.685772)"><g><path d="M 2.59375 -21.828125 L 7.640625 -21.828125 L 7.640625 -4.109375 L 18.59375 -4.109375 L 18.59375 0 L 2.59375 0 Z M 2.59375 -21.828125 "/></g></g></g><g fill="#2f4f76" fill-opacity="1"><g transform="translate(154.918132, 78.685772)"><g><path d="M 19.5 -4.046875 L 19.5 0 L 2.59375 0 L 2.59375 -21.828125 L 19.09375 -21.828125 L 19.09375 -17.78125 L 7.609375 -17.78125 L 7.609375 -13.03125 L 17.75 -13.03125 L 17.75 -9.109375 L 7.609375 -9.109375 L 7.609375 -4.046875 Z M 19.5 -4.046875 "/></g></g></g><g fill="#2f4f76" fill-opacity="1"><g transform="translate(179.175513, 78.685772)"><g><path d="M 19.5 -4.046875 L 19.5 0 L 2.59375 0 L 2.59375 -21.828125 L 19.09375 -21.828125 L 19.09375 -17.78125 L 7.609375 -17.78125 L 7.609375 -13.03125 L 17.75 -13.03125 L 17.75 -9.109375 L 7.609375 -9.109375 L 7.609375 -4.046875 Z M 19.5 -4.046875 "/></g></g></g><g fill="#2f4f76" fill-opacity="1"><g transform="translate(203.432892, 78.685772)"><g/></g></g><g fill="#2f4f76" fill-opacity="1"><g transform="translate(215.593597, 78.685772)"><g><path d="M 13.03125 0.375 C 10.8125 0.375 8.800781 -0.109375 7 -1.078125 C 5.195312 -2.046875 3.78125 -3.382812 2.75 -5.09375 C 1.726562 -6.8125 1.21875 -8.753906 1.21875 -10.921875 C 1.21875 -13.078125 1.726562 -15.015625 2.75 -16.734375 C 3.78125 -18.453125 5.195312 -19.789062 7 -20.75 C 8.800781 -21.71875 10.820312 -22.203125 13.0625 -22.203125 C 14.957031 -22.203125 16.664062 -21.867188 18.1875 -21.203125 C 19.71875 -20.535156 21.003906 -19.582031 22.046875 -18.34375 L 18.8125 -15.34375 C 17.332031 -17.050781 15.5 -17.90625 13.3125 -17.90625 C 11.96875 -17.90625 10.765625 -17.609375 9.703125 -17.015625 C 8.640625 -16.421875 7.8125 -15.59375 7.21875 -14.53125 C 6.625 -13.46875 6.328125 -12.265625 6.328125 -10.921875 C 6.328125 -9.566406 6.625 -8.359375 7.21875 -7.296875 C 7.8125 -6.234375 8.640625 -5.40625 9.703125 -4.8125 C 10.765625 -4.21875 11.96875 -3.921875 13.3125 -3.921875 C 15.5 -3.921875 17.332031 -4.785156 18.8125 -6.515625 L 22.046875 -3.53125 C 21.003906 -2.257812 19.710938 -1.289062 18.171875 -0.625 C 16.640625 0.0390625 14.925781 0.375 13.03125 0.375 Z M 13.03125 0.375 "/></g></g></g><g fill="#2f4f76" fill-opacity="1"><g transform="translate(241.783961, 78.685772)"><g><path d="M 13.15625 0.375 C 10.894531 0.375 8.851562 -0.113281 7.03125 -1.09375 C 5.207031 -2.070312 3.78125 -3.414062 2.75 -5.125 C 1.726562 -6.84375 1.21875 -8.773438 1.21875 -10.921875 C 1.21875 -13.054688 1.726562 -14.984375 2.75 -16.703125 C 3.78125 -18.421875 5.207031 -19.765625 7.03125 -20.734375 C 8.851562 -21.710938 10.894531 -22.203125 13.15625 -22.203125 C 15.425781 -22.203125 17.460938 -21.710938 19.265625 -20.734375 C 21.078125 -19.765625 22.503906 -18.421875 23.546875 -16.703125 C 24.585938 -14.984375 25.109375 -13.054688 25.109375 -10.921875 C 25.109375 -8.773438 24.585938 -6.84375 23.546875 -5.125 C 22.503906 -3.414062 21.078125 -2.070312 19.265625 -1.09375 C 17.460938 -0.113281 15.425781 0.375 13.15625 0.375 Z M 13.15625 -3.921875 C 14.445312 -3.921875 15.613281 -4.21875 16.65625 -4.8125 C 17.695312 -5.40625 18.507812 -6.234375 19.09375 -7.296875 C 19.6875 -8.359375 19.984375 -9.566406 19.984375 -10.921875 C 19.984375 -12.265625 19.6875 -13.46875 19.09375 -14.53125 C 18.507812 -15.59375 17.695312 -16.421875 16.65625 -17.015625 C 15.613281 -17.609375 14.445312 -17.90625 13.15625 -17.90625 C 11.875 -17.90625 10.710938 -17.609375 9.671875 -17.015625 C 8.628906 -16.421875 7.8125 -15.59375 7.21875 -14.53125 C 6.625 -13.46875 6.328125 -12.265625 6.328125 -10.921875 C 6.328125 -9.566406 6.625 -8.359375 7.21875 -7.296875 C 7.8125 -6.234375 8.628906 -5.40625 9.671875 -4.8125 C 10.710938 -4.21875 11.875 -3.921875 13.15625 -3.921875 Z M 13.15625 -3.921875 "/></g></g></g><g fill="#2f4f76" fill-opacity="1"><g transform="translate(271.434964, 78.685772)"><g><path d="M 12.28125 0.375 C 9.164062 0.375 6.738281 -0.484375 5 -2.203125 C 3.269531 -3.929688 2.40625 -6.398438 2.40625 -9.609375 L 2.40625 -21.828125 L 7.453125 -21.828125 L 7.453125 -9.796875 C 7.453125 -5.878906 9.070312 -3.921875 12.3125 -3.921875 C 13.894531 -3.921875 15.101562 -4.394531 15.9375 -5.34375 C 16.769531 -6.289062 17.1875 -7.773438 17.1875 -9.796875 L 17.1875 -21.828125 L 22.171875 -21.828125 L 22.171875 -9.609375 C 22.171875 -6.398438 21.300781 -3.929688 19.5625 -2.203125 C 17.832031 -0.484375 15.40625 0.375 12.28125 0.375 Z M 12.28125 0.375 "/></g></g></g><g fill="#2f4f76" fill-opacity="1"><g transform="translate(299.340067, 78.685772)"><g><path d="M 22.609375 -21.828125 L 22.609375 0 L 18.46875 0 L 7.578125 -13.25 L 7.578125 0 L 2.59375 0 L 2.59375 -21.828125 L 6.765625 -21.828125 L 17.625 -8.578125 L 17.625 -21.828125 Z M 22.609375 -21.828125 "/></g></g></g><g fill="#2f4f76" fill-opacity="1"><g transform="translate(327.868714, 78.685772)"><g><path d="M 7.109375 -17.71875 L 0.125 -17.71875 L 0.125 -21.828125 L 19.15625 -21.828125 L 19.15625 -17.71875 L 12.15625 -17.71875 L 12.15625 0 L 7.109375 0 Z M 7.109375 -17.71875 "/></g></g></g><g fill="#2f4f76" fill-opacity="1"><g transform="translate(350.47372, 78.685772)"><g><path d="M 13.0625 -7.734375 L 13.0625 0 L 8.015625 0 L 8.015625 -7.796875 L -0.4375 -21.828125 L 4.921875 -21.828125 L 10.765625 -12.125 L 16.59375 -21.828125 L 21.546875 -21.828125 Z M 13.0625 -7.734375 "/></g></g></g><g fill="#c29450" fill-opacity="1"><g transform="translate(152.837571, 100.679172)"><g><path d="M 4.71875 -8.734375 C 5.851562 -8.734375 6.742188 -8.460938 7.390625 -7.921875 C 8.035156 -7.378906 8.359375 -6.632812 8.359375 -5.6875 C 8.359375 -4.738281 8.035156 -3.992188 7.390625 -3.453125 C 6.742188 -2.910156 5.851562 -2.640625 4.71875 -2.640625 L 2.5625 -2.640625 L 2.5625 0 L 1.3125 0 L 1.3125 -8.734375 Z M 4.6875 -3.734375 C 5.476562 -3.734375 6.078125 -3.898438 6.484375 -4.234375 C 6.898438 -4.578125 7.109375 -5.0625 7.109375 -5.6875 C 7.109375 -6.320312 6.898438 -6.804688 6.484375 -7.140625 C 6.078125 -7.484375 5.476562 -7.65625 4.6875 -7.65625 L 2.5625 -7.65625 L 2.5625 -3.734375 Z M 4.6875 -3.734375 "/></g></g></g><g fill="#c29450" fill-opacity="1"><g transform="translate(165.049772, 100.679172)"><g><path d="M 4.9375 0.09375 C 3.769531 0.09375 2.859375 -0.234375 2.203125 -0.890625 C 1.554688 -1.554688 1.234375 -2.515625 1.234375 -3.765625 L 1.234375 -8.734375 L 2.484375 -8.734375 L 2.484375 -3.8125 C 2.484375 -1.945312 3.300781 -1.015625 4.9375 -1.015625 C 5.738281 -1.015625 6.351562 -1.242188 6.78125 -1.703125 C 7.207031 -2.160156 7.421875 -2.863281 7.421875 -3.8125 L 7.421875 -8.734375 L 8.625 -8.734375 L 8.625 -3.765625 C 8.625 -2.515625 8.296875 -1.554688 7.640625 -0.890625 C 6.992188 -0.234375 6.09375 0.09375 4.9375 0.09375 Z M 4.9375 0.09375 "/></g></g></g><g fill="#c29450" fill-opacity="1"><g transform="translate(178.123428, 100.679172)"><g><path d="M 7.1875 -4.53125 C 7.695312 -4.382812 8.097656 -4.125 8.390625 -3.75 C 8.679688 -3.382812 8.828125 -2.921875 8.828125 -2.359375 C 8.828125 -1.597656 8.539062 -1.015625 7.96875 -0.609375 C 7.394531 -0.203125 6.566406 0 5.484375 0 L 1.3125 0 L 1.3125 -8.734375 L 5.234375 -8.734375 C 6.234375 -8.734375 7.003906 -8.535156 7.546875 -8.140625 C 8.085938 -7.742188 8.359375 -7.191406 8.359375 -6.484375 C 8.359375 -6.023438 8.253906 -5.628906 8.046875 -5.296875 C 7.835938 -4.960938 7.550781 -4.707031 7.1875 -4.53125 Z M 2.5625 -7.734375 L 2.5625 -4.9375 L 5.125 -4.9375 C 5.757812 -4.9375 6.25 -5.050781 6.59375 -5.28125 C 6.9375 -5.519531 7.109375 -5.867188 7.109375 -6.328125 C 7.109375 -6.785156 6.9375 -7.132812 6.59375 -7.375 C 6.25 -7.613281 5.757812 -7.734375 5.125 -7.734375 Z M 5.4375 -1.015625 C 6.132812 -1.015625 6.660156 -1.128906 7.015625 -1.359375 C 7.378906 -1.585938 7.5625 -1.953125 7.5625 -2.453125 C 7.5625 -3.429688 6.851562 -3.921875 5.4375 -3.921875 L 2.5625 -3.921875 L 2.5625 -1.015625 Z M 5.4375 -1.015625 "/></g></g></g><g fill="#c29450" fill-opacity="1"><g transform="translate(190.772598, 100.679172)"><g><path d="M 1.3125 -8.734375 L 2.5625 -8.734375 L 2.5625 -1.09375 L 7.296875 -1.09375 L 7.296875 0 L 1.3125 0 Z M 1.3125 -8.734375 "/></g></g></g><g fill="#c29450" fill-opacity="1"><g transform="translate(201.386726, 100.679172)"><g><path d="M 1.3125 -8.734375 L 2.5625 -8.734375 L 2.5625 0 L 1.3125 0 Z M 1.3125 -8.734375 "/></g></g></g><g fill="#c29450" fill-opacity="1"><g transform="translate(208.455124, 100.679172)"><g><path d="M 5.21875 0.09375 C 4.34375 0.09375 3.550781 -0.0976562 2.84375 -0.484375 C 2.144531 -0.867188 1.59375 -1.398438 1.1875 -2.078125 C 0.789062 -2.753906 0.59375 -3.519531 0.59375 -4.375 C 0.59375 -5.21875 0.789062 -5.976562 1.1875 -6.65625 C 1.59375 -7.332031 2.148438 -7.863281 2.859375 -8.25 C 3.566406 -8.644531 4.359375 -8.84375 5.234375 -8.84375 C 5.910156 -8.84375 6.53125 -8.726562 7.09375 -8.5 C 7.664062 -8.269531 8.148438 -7.929688 8.546875 -7.484375 L 7.734375 -6.6875 C 7.078125 -7.382812 6.257812 -7.734375 5.28125 -7.734375 C 4.632812 -7.734375 4.046875 -7.585938 3.515625 -7.296875 C 2.992188 -7.003906 2.582031 -6.597656 2.28125 -6.078125 C 1.988281 -5.566406 1.84375 -5 1.84375 -4.375 C 1.84375 -3.738281 1.988281 -3.164062 2.28125 -2.65625 C 2.582031 -2.144531 2.992188 -1.742188 3.515625 -1.453125 C 4.046875 -1.160156 4.632812 -1.015625 5.28125 -1.015625 C 6.25 -1.015625 7.066406 -1.363281 7.734375 -2.0625 L 8.546875 -1.265625 C 8.148438 -0.816406 7.664062 -0.476562 7.09375 -0.25 C 6.519531 -0.0195312 5.894531 0.09375 5.21875 0.09375 Z M 5.21875 0.09375 "/></g></g></g><g fill="#c29450" fill-opacity="1"><g transform="translate(220.679811, 100.679172)"><g/></g></g><g fill="#c29450" fill-opacity="1"><g transform="translate(227.236324, 100.679172)"><g><path d="M 1.3125 -8.734375 L 2.5625 -8.734375 L 2.5625 -1.09375 L 7.296875 -1.09375 L 7.296875 0 L 1.3125 0 Z M 1.3125 -8.734375 "/></g></g></g><g fill="#c29450" fill-opacity="1"><g transform="translate(237.850451, 100.679172)"><g><path d="M 1.3125 -8.734375 L 2.5625 -8.734375 L 2.5625 0 L 1.3125 0 Z M 1.3125 -8.734375 "/></g></g></g><g fill="#c29450" fill-opacity="1"><g transform="translate(244.918849, 100.679172)"><g><path d="M 7.1875 -4.53125 C 7.695312 -4.382812 8.097656 -4.125 8.390625 -3.75 C 8.679688 -3.382812 8.828125 -2.921875 8.828125 -2.359375 C 8.828125 -1.597656 8.539062 -1.015625 7.96875 -0.609375 C 7.394531 -0.203125 6.566406 0 5.484375 0 L 1.3125 0 L 1.3125 -8.734375 L 5.234375 -8.734375 C 6.234375 -8.734375 7.003906 -8.535156 7.546875 -8.140625 C 8.085938 -7.742188 8.359375 -7.191406 8.359375 -6.484375 C 8.359375 -6.023438 8.253906 -5.628906 8.046875 -5.296875 C 7.835938 -4.960938 7.550781 -4.707031 7.1875 -4.53125 Z M 2.5625 -7.734375 L 2.5625 -4.9375 L 5.125 -4.9375 C 5.757812 -4.9375 6.25 -5.050781 6.59375 -5.28125 C 6.9375 -5.519531 7.109375 -5.867188 7.109375 -6.328125 C 7.109375 -6.785156 6.9375 -7.132812 6.59375 -7.375 C 6.25 -7.613281 5.757812 -7.734375 5.125 -7.734375 Z M 5.4375 -1.015625 C 6.132812 -1.015625 6.660156 -1.128906 7.015625 -1.359375 C 7.378906 -1.585938 7.5625 -1.953125 7.5625 -2.453125 C 7.5625 -3.429688 6.851562 -3.921875 5.4375 -3.921875 L 2.5625 -3.921875 L 2.5625 -1.015625 Z M 5.4375 -1.015625 "/></g></g></g><g fill="#c29450" fill-opacity="1"><g transform="translate(257.568018, 100.679172)"><g><path d="M 7.15625 0 L 5.265625 -2.6875 C 5.035156 -2.664062 4.851562 -2.65625 4.71875 -2.65625 L 2.5625 -2.65625 L 2.5625 0 L 1.3125 0 L 1.3125 -8.734375 L 4.71875 -8.734375 C 5.851562 -8.734375 6.742188 -8.460938 7.390625 -7.921875 C 8.035156 -7.378906 8.359375 -6.632812 8.359375 -5.6875 C 8.359375 -5.019531 8.191406 -4.445312 7.859375 -3.96875 C 7.523438 -3.5 7.050781 -3.15625 6.4375 -2.9375 L 8.515625 0 Z M 4.6875 -3.71875 C 5.476562 -3.71875 6.078125 -3.890625 6.484375 -4.234375 C 6.898438 -4.578125 7.109375 -5.0625 7.109375 -5.6875 C 7.109375 -6.320312 6.898438 -6.804688 6.484375 -7.140625 C 6.078125 -7.484375 5.476562 -7.65625 4.6875 -7.65625 L 2.5625 -7.65625 L 2.5625 -3.71875 Z M 4.6875 -3.71875 "/></g></g></g><g fill="#c29450" fill-opacity="1"><g transform="translate(269.842637, 100.679172)"><g><path d="M 6.875 -2.1875 L 2.234375 -2.1875 L 1.265625 0 L -0.015625 0 L 3.9375 -8.734375 L 5.1875 -8.734375 L 9.15625 0 L 7.84375 0 Z M 6.4375 -3.1875 L 4.5625 -7.46875 L 2.671875 -3.1875 Z M 6.4375 -3.1875 "/></g></g></g><g fill="#c29450" fill-opacity="1"><g transform="translate(282.179694, 100.679172)"><g><path d="M 7.15625 0 L 5.265625 -2.6875 C 5.035156 -2.664062 4.851562 -2.65625 4.71875 -2.65625 L 2.5625 -2.65625 L 2.5625 0 L 1.3125 0 L 1.3125 -8.734375 L 4.71875 -8.734375 C 5.851562 -8.734375 6.742188 -8.460938 7.390625 -7.921875 C 8.035156 -7.378906 8.359375 -6.632812 8.359375 -5.6875 C 8.359375 -5.019531 8.191406 -4.445312 7.859375 -3.96875 C 7.523438 -3.5 7.050781 -3.15625 6.4375 -2.9375 L 8.515625 0 Z M 4.6875 -3.71875 C 5.476562 -3.71875 6.078125 -3.890625 6.484375 -4.234375 C 6.898438 -4.578125 7.109375 -5.0625 7.109375 -5.6875 C 7.109375 -6.320312 6.898438 -6.804688 6.484375 -7.140625 C 6.078125 -7.484375 5.476562 -7.65625 4.6875 -7.65625 L 2.5625 -7.65625 L 2.5625 -3.71875 Z M 4.6875 -3.71875 "/></g></g></g><g fill="#c29450" fill-opacity="1"><g transform="translate(294.454319, 100.679172)"><g><path d="M 4.65625 -3.015625 L 4.65625 0 L 3.421875 0 L 3.421875 -3.046875 L -0.046875 -8.734375 L 1.28125 -8.734375 L 4.078125 -4.125 L 6.890625 -8.734375 L 8.125 -8.734375 Z M 4.65625 -3.015625 "/></g></g></g></svg>