<svg xmlns="http://www.w3.org/2000/svg" xmlns:xlink="http://www.w3.org/1999/xlink" width="500" zoomAndPan="magnify" viewBox="0 0 375 98.999996" height="132" preserveAspectRatio="xMidYMid meet" version="1.0"><defs><g/><clipPath id="320a4c3845"><path d="M 0.621094 48.523438 L 56.625 48.523438 L 56.625 96.609375 L 0.621094 96.609375 Z M 0.621094 48.523438 " clip-rule="nonzero"/></clipPath><clipPath id="2a6e7480c0"><path d="M 54.238281 88.527344 L 64.265625 88.527344 L 64.265625 96.609375 L 54.238281 96.609375 Z M 54.238281 88.527344 " clip-rule="nonzero"/></clipPath><clipPath id="0e666ddd81"><path d="M 71.550781 48.523438 L 127.371094 48.523438 L 127.371094 96.609375 L 71.550781 96.609375 Z M 71.550781 48.523438 " clip-rule="nonzero"/></clipPath><clipPath id="baaaa97fb8"><path d="M 63.910156 88.527344 L 73.941406 88.527344 L 73.941406 96.609375 L 63.910156 96.609375 Z M 63.910156 88.527344 " clip-rule="nonzero"/></clipPath><clipPath id="8577f15f41"><path d="M 77 0.839844 L 88 0.839844 L 88 12 L 77 12 Z M 77 0.839844 " clip-rule="nonzero"/></clipPath></defs><g clip-path="url(#320a4c3845)"><path fill="#2f4f76" d="M 56.230469 96.144531 C 56.210938 96.136719 56.199219 96.132812 56.1875 96.128906 C 56.195312 96.136719 56.207031 96.140625 56.226562 96.148438 C 56.175781 96.300781 56.125 96.453125 56.082031 96.609375 C 55.472656 96.429688 54.871094 96.257812 54.257812 96.09375 C 37.003906 91.34375 18.699219 90.394531 0.621094 93.4375 C 3.90625 81.878906 7.199219 70.320312 10.488281 58.761719 C 11.890625 53.835938 15.785156 50.019531 20.734375 48.710938 C 20.960938 48.648438 21.191406 48.589844 21.417969 48.53125 C 17.183594 61.417969 12.945312 74.304688 8.710938 87.1875 C 22.90625 85.378906 43.582031 88.632812 54.914062 94.382812 C 55.496094 94.675781 56.050781 94.976562 56.582031 95.285156 C 56.449219 95.5625 56.328125 95.847656 56.230469 96.144531 " fill-opacity="1" fill-rule="nonzero"/></g><path fill="#196fa4" d="M 35.425781 40.773438 C 35.339844 40.789062 35.253906 40.808594 35.167969 40.828125 C 30.160156 41.925781 26.113281 45.597656 24.515625 50.46875 C 20.890625 61.53125 17.46875 71.96875 13.726562 83.378906 C 39.152344 82.191406 53.226562 91.199219 53.226562 91.199219 C 40.414062 79.921875 21.175781 79.96875 21.175781 79.96875 C 21.175781 79.96875 30.683594 53.480469 35.425781 40.773438 " fill-opacity="1" fill-rule="nonzero"/><path fill="#50a5cd" d="M 48.925781 34.679688 C 48.898438 34.6875 48.867188 34.691406 48.835938 34.699219 C 43.828125 35.78125 39.78125 39.46875 38.1875 44.339844 C 34.652344 55.125 31.3125 65.304688 27.664062 76.429688 C 46.78125 78.917969 54.832031 90.464844 54.832031 90.464844 C 50.882812 78.839844 34.621094 74.207031 34.621094 74.207031 C 34.621094 74.207031 44.28125 47.132812 48.925781 34.679688 " fill-opacity="1" fill-rule="nonzero"/><g clip-path="url(#2a6e7480c0)"><path fill="#2f4f76" d="M 64.183594 88.589844 C 60.113281 88.589844 56.589844 90.953125 54.914062 94.382812 C 54.753906 94.707031 54.613281 95.039062 54.488281 95.382812 C 54.40625 95.617188 54.328125 95.855469 54.257812 96.09375 C 54.871094 96.257812 55.472656 96.429688 56.082031 96.609375 C 56.125 96.453125 56.175781 96.300781 56.226562 96.148438 L 56.230469 96.144531 C 56.328125 95.847656 56.449219 95.5625 56.582031 95.285156 C 57.933594 92.445312 60.832031 90.480469 64.183594 90.480469 L 64.183594 88.589844 " fill-opacity="1" fill-rule="nonzero"/></g><path fill="#50a5cd" d="M 75.695312 36.28125 C 82.078125 29.296875 84.726562 21.351562 83.253906 10.367188 C 87.222656 20.675781 87.386719 32.074219 79.953125 41.210938 C 67.324219 56.742188 44.316406 58.976562 43.339844 77.074219 C 40.132812 55.492188 62.230469 51.011719 75.695312 36.28125 " fill-opacity="1" fill-rule="nonzero"/><path fill="#f6c275" d="M 56.609375 29.773438 C 56.609375 34.097656 59.605469 37.605469 63.300781 37.605469 C 67 37.605469 69.996094 34.097656 69.996094 29.773438 C 69.996094 25.445312 67 21.9375 63.300781 21.9375 C 59.605469 21.9375 56.609375 25.445312 56.609375 29.773438 " fill-opacity="1" fill-rule="nonzero"/><g clip-path="url(#0e666ddd81)"><path fill="#2f4f76" d="M 71.921875 96.144531 C 71.9375 96.136719 71.953125 96.132812 71.960938 96.128906 C 71.953125 96.136719 71.941406 96.140625 71.921875 96.148438 C 71.972656 96.300781 72.023438 96.453125 72.066406 96.609375 C 72.675781 96.429688 73.28125 96.257812 73.890625 96.09375 C 91.144531 91.34375 109.449219 90.394531 127.53125 93.4375 C 124.242188 81.878906 120.953125 70.320312 117.664062 58.761719 C 116.261719 53.835938 112.363281 50.019531 107.414062 48.710938 C 107.1875 48.648438 106.960938 48.589844 106.730469 48.53125 C 110.96875 61.417969 115.203125 74.304688 119.4375 87.1875 C 105.242188 85.378906 84.566406 88.632812 73.234375 94.382812 C 72.652344 94.675781 72.097656 94.976562 71.566406 95.285156 C 71.703125 95.5625 71.820312 95.847656 71.921875 96.144531 " fill-opacity="1" fill-rule="nonzero"/></g><path fill="#196fa4" d="M 92.726562 40.773438 C 92.808594 40.789062 92.894531 40.808594 92.980469 40.828125 C 97.988281 41.925781 102.035156 45.597656 103.632812 50.46875 C 107.257812 61.53125 110.683594 71.96875 114.421875 83.378906 C 88.996094 82.191406 74.925781 91.199219 74.925781 91.199219 C 87.734375 79.921875 106.972656 79.96875 106.972656 79.96875 C 106.972656 79.96875 97.464844 53.480469 92.726562 40.773438 " fill-opacity="1" fill-rule="nonzero"/><path fill="#50a5cd" d="M 73.226562 90.46875 C 73.226562 90.46875 81.277344 78.914062 100.394531 76.429688 C 96.792969 65.449219 93.492188 55.390625 90.011719 44.761719 C 88.617188 46.867188 86.882812 48.757812 84.875 50.386719 C 89.125 62.121094 93.4375 74.203125 93.4375 74.203125 C 93.4375 74.203125 77.175781 78.839844 73.226562 90.46875 " fill-opacity="1" fill-rule="nonzero"/><g clip-path="url(#baaaa97fb8)"><path fill="#2f4f76" d="M 63.964844 90.480469 C 67.320312 90.480469 70.21875 92.445312 71.566406 95.285156 C 71.703125 95.5625 71.820312 95.847656 71.921875 96.144531 L 71.921875 96.148438 C 71.972656 96.300781 72.023438 96.453125 72.066406 96.609375 C 72.675781 96.429688 73.28125 96.257812 73.890625 96.09375 C 73.820312 95.855469 73.746094 95.617188 73.664062 95.382812 C 73.535156 95.039062 73.394531 94.707031 73.234375 94.382812 C 71.5625 90.953125 68.039062 88.589844 63.964844 88.589844 L 63.964844 90.480469 " fill-opacity="1" fill-rule="nonzero"/></g><path fill="#f6c275" d="M 79.738281 52.832031 C 85.742188 49.414062 90.332031 44.074219 92.027344 37.472656 C 92.5 46.183594 88.171875 53.84375 81.207031 58.5625 C 69.441406 66.539062 52.332031 66.558594 45.792969 77.867188 C 48.480469 63.195312 66.835938 60.179688 79.738281 52.832031 " fill-opacity="1" fill-rule="nonzero"/><g clip-path="url(#8577f15f41)"><path fill="#f6cf95" d="M 77.058594 2.660156 C 80.910156 6.035156 81.066406 6.8125 78.839844 11.421875 C 82.21875 7.574219 82.992188 7.414062 87.605469 9.640625 C 83.753906 6.265625 83.597656 5.488281 85.820312 0.878906 C 82.445312 4.726562 81.671875 4.886719 77.058594 2.660156 " fill-opacity="1" fill-rule="nonzero"/></g><path fill="#f6cf95" d="M 93.019531 19.578125 C 94.347656 19.757812 94.492188 19.90625 94.671875 21.234375 C 94.855469 19.90625 95 19.761719 96.328125 19.582031 C 95 19.398438 94.855469 19.253906 94.675781 17.925781 C 94.492188 19.253906 94.347656 19.398438 93.019531 19.578125 " fill-opacity="1" fill-rule="nonzero"/><path fill="#f6cf95" d="M 69.863281 18.574219 C 72.558594 18.945312 72.859375 19.242188 73.222656 21.9375 C 73.589844 19.242188 73.886719 18.945312 76.585938 18.578125 C 73.890625 18.210938 73.589844 17.914062 73.226562 15.21875 C 72.859375 17.914062 72.5625 18.210938 69.863281 18.574219 " fill-opacity="1" fill-rule="nonzero"/><g fill="#2f4f76" fill-opacity="1"><g transform="translate(136.996931, 68.001064)"><g><path d="M 2.5625 -21.609375 L 7.5625 -21.609375 L 7.5625 -4.078125 L 18.40625 -4.078125 L 18.40625 0 L 2.5625 0 Z M 2.5625 -21.609375 "/></g></g></g><g fill="#2f4f76" fill-opacity="1"><g transform="translate(158.938612, 68.001064)"><g><path d="M 19.296875 -4.015625 L 19.296875 0 L 2.5625 0 L 2.5625 -21.609375 L 18.890625 -21.609375 L 18.890625 -17.59375 L 7.53125 -17.59375 L 7.53125 -12.90625 L 17.5625 -12.90625 L 17.5625 -9.015625 L 7.53125 -9.015625 L 7.53125 -4.015625 Z M 19.296875 -4.015625 "/></g></g></g><g fill="#2f4f76" fill-opacity="1"><g transform="translate(182.947781, 68.001064)"><g><path d="M 19.296875 -4.015625 L 19.296875 0 L 2.5625 0 L 2.5625 -21.609375 L 18.890625 -21.609375 L 18.890625 -17.59375 L 7.53125 -17.59375 L 7.53125 -12.90625 L 17.5625 -12.90625 L 17.5625 -9.015625 L 7.53125 -9.015625 L 7.53125 -4.015625 Z M 19.296875 -4.015625 "/></g></g></g><g fill="#2f4f76" fill-opacity="1"><g transform="translate(218.993218, 68.001064)"><g><path d="M 12.90625 0.375 C 10.707031 0.375 8.71875 -0.101562 6.9375 -1.0625 C 5.15625 -2.019531 3.753906 -3.347656 2.734375 -5.046875 C 1.710938 -6.742188 1.203125 -8.664062 1.203125 -10.8125 C 1.203125 -12.945312 1.710938 -14.863281 2.734375 -16.5625 C 3.753906 -18.257812 5.15625 -19.585938 6.9375 -20.546875 C 8.71875 -21.503906 10.71875 -21.984375 12.9375 -21.984375 C 14.8125 -21.984375 16.503906 -21.648438 18.015625 -20.984375 C 19.523438 -20.328125 20.796875 -19.382812 21.828125 -18.15625 L 18.625 -15.1875 C 17.15625 -16.875 15.34375 -17.71875 13.1875 -17.71875 C 11.84375 -17.71875 10.644531 -17.425781 9.59375 -16.84375 C 8.550781 -16.257812 7.734375 -15.441406 7.140625 -14.390625 C 6.554688 -13.335938 6.265625 -12.144531 6.265625 -10.8125 C 6.265625 -9.46875 6.554688 -8.269531 7.140625 -7.21875 C 7.734375 -6.175781 8.550781 -5.359375 9.59375 -4.765625 C 10.644531 -4.179688 11.84375 -3.890625 13.1875 -3.890625 C 15.34375 -3.890625 17.15625 -4.742188 18.625 -6.453125 L 21.828125 -3.484375 C 20.796875 -2.234375 19.519531 -1.273438 18 -0.609375 C 16.476562 0.046875 14.78125 0.375 12.90625 0.375 Z M 12.90625 0.375 "/></g></g></g><g fill="#2f4f76" fill-opacity="1"><g transform="translate(244.91559, 68.001064)"><g><path d="M 13.03125 0.375 C 10.78125 0.375 8.753906 -0.109375 6.953125 -1.078125 C 5.160156 -2.046875 3.753906 -3.378906 2.734375 -5.078125 C 1.710938 -6.773438 1.203125 -8.6875 1.203125 -10.8125 C 1.203125 -12.925781 1.710938 -14.832031 2.734375 -16.53125 C 3.753906 -18.226562 5.160156 -19.5625 6.953125 -20.53125 C 8.753906 -21.5 10.78125 -21.984375 13.03125 -21.984375 C 15.269531 -21.984375 17.285156 -21.5 19.078125 -20.53125 C 20.867188 -19.5625 22.28125 -18.226562 23.3125 -16.53125 C 24.34375 -14.832031 24.859375 -12.925781 24.859375 -10.8125 C 24.859375 -8.6875 24.34375 -6.773438 23.3125 -5.078125 C 22.28125 -3.378906 20.867188 -2.046875 19.078125 -1.078125 C 17.285156 -0.109375 15.269531 0.375 13.03125 0.375 Z M 13.03125 -3.890625 C 14.300781 -3.890625 15.453125 -4.179688 16.484375 -4.765625 C 17.515625 -5.359375 18.320312 -6.175781 18.90625 -7.21875 C 19.5 -8.269531 19.796875 -9.46875 19.796875 -10.8125 C 19.796875 -12.144531 19.5 -13.335938 18.90625 -14.390625 C 18.320312 -15.441406 17.515625 -16.257812 16.484375 -16.84375 C 15.453125 -17.425781 14.300781 -17.71875 13.03125 -17.71875 C 11.75 -17.71875 10.59375 -17.425781 9.5625 -16.84375 C 8.539062 -16.257812 7.734375 -15.441406 7.140625 -14.390625 C 6.554688 -13.335938 6.265625 -12.144531 6.265625 -10.8125 C 6.265625 -9.46875 6.554688 -8.269531 7.140625 -7.21875 C 7.734375 -6.175781 8.539062 -5.359375 9.5625 -4.765625 C 10.59375 -4.179688 11.75 -3.890625 13.03125 -3.890625 Z M 13.03125 -3.890625 "/></g></g></g><g fill="#2f4f76" fill-opacity="1"><g transform="translate(274.263189, 68.001064)"><g><path d="M 12.171875 0.375 C 9.078125 0.375 6.671875 -0.476562 4.953125 -2.1875 C 3.234375 -3.894531 2.375 -6.335938 2.375 -9.515625 L 2.375 -21.609375 L 7.375 -21.609375 L 7.375 -9.6875 C 7.375 -5.820312 8.984375 -3.890625 12.203125 -3.890625 C 13.765625 -3.890625 14.957031 -4.359375 15.78125 -5.296875 C 16.601562 -6.234375 17.015625 -7.695312 17.015625 -9.6875 L 17.015625 -21.609375 L 21.953125 -21.609375 L 21.953125 -9.515625 C 21.953125 -6.335938 21.09375 -3.894531 19.375 -2.1875 C 17.65625 -0.476562 15.253906 0.375 12.171875 0.375 Z M 12.171875 0.375 "/></g></g></g><g fill="#2f4f76" fill-opacity="1"><g transform="translate(301.882754, 68.001064)"><g><path d="M 22.390625 -21.609375 L 22.390625 0 L 18.28125 0 L 7.5 -13.125 L 7.5 0 L 2.5625 0 L 2.5625 -21.609375 L 6.703125 -21.609375 L 17.4375 -8.484375 L 17.4375 -21.609375 Z M 22.390625 -21.609375 "/></g></g></g><g fill="#2f4f76" fill-opacity="1"><g transform="translate(330.119482, 68.001064)"><g><path d="M 7.046875 -17.53125 L 0.125 -17.53125 L 0.125 -21.609375 L 18.953125 -21.609375 L 18.953125 -17.53125 L 12.046875 -17.53125 L 12.046875 0 L 7.046875 0 Z M 7.046875 -17.53125 "/></g></g></g><g fill="#2f4f76" fill-opacity="1"><g transform="translate(352.493184, 68.001064)"><g><path d="M 12.9375 -7.65625 L 12.9375 0 L 7.9375 0 L 7.9375 -7.71875 L -0.4375 -21.609375 L 4.875 -21.609375 L 10.65625 -12.015625 L 16.421875 -21.609375 L 21.328125 -21.609375 Z M 12.9375 -7.65625 "/></g></g></g><g fill="#c29450" fill-opacity="1"><g transform="translate(165.936595, 90.142064)"><g><path d="M 5.625 -10.421875 C 6.976562 -10.421875 8.039062 -10.097656 8.8125 -9.453125 C 9.59375 -8.804688 9.984375 -7.921875 9.984375 -6.796875 C 9.984375 -5.660156 9.59375 -4.769531 8.8125 -4.125 C 8.039062 -3.476562 6.976562 -3.15625 5.625 -3.15625 L 3.046875 -3.15625 L 3.046875 0 L 1.5625 0 L 1.5625 -10.421875 Z M 5.578125 -4.453125 C 6.523438 -4.453125 7.242188 -4.648438 7.734375 -5.046875 C 8.234375 -5.453125 8.484375 -6.035156 8.484375 -6.796875 C 8.484375 -7.546875 8.234375 -8.117188 7.734375 -8.515625 C 7.242188 -8.921875 6.523438 -9.125 5.578125 -9.125 L 3.046875 -9.125 L 3.046875 -4.453125 Z M 5.578125 -4.453125 "/></g></g></g><g fill="#c29450" fill-opacity="1"><g transform="translate(180.496632, 90.142064)"><g><path d="M 5.875 0.125 C 4.488281 0.125 3.40625 -0.269531 2.625 -1.0625 C 1.851562 -1.863281 1.46875 -3.007812 1.46875 -4.5 L 1.46875 -10.421875 L 2.96875 -10.421875 L 2.96875 -4.5625 C 2.96875 -2.320312 3.941406 -1.203125 5.890625 -1.203125 C 6.847656 -1.203125 7.578125 -1.476562 8.078125 -2.03125 C 8.585938 -2.582031 8.84375 -3.425781 8.84375 -4.5625 L 8.84375 -10.421875 L 10.296875 -10.421875 L 10.296875 -4.5 C 10.296875 -3 9.90625 -1.851562 9.125 -1.0625 C 8.351562 -0.269531 7.269531 0.125 5.875 0.125 Z M 5.875 0.125 "/></g></g></g><g fill="#c29450" fill-opacity="1"><g transform="translate(196.083761, 90.142064)"><g><path d="M 8.578125 -5.40625 C 9.179688 -5.238281 9.65625 -4.929688 10 -4.484375 C 10.351562 -4.046875 10.53125 -3.488281 10.53125 -2.8125 C 10.53125 -1.90625 10.1875 -1.207031 9.5 -0.71875 C 8.820312 -0.238281 7.832031 0 6.53125 0 L 1.5625 0 L 1.5625 -10.421875 L 6.234375 -10.421875 C 7.429688 -10.421875 8.351562 -10.179688 9 -9.703125 C 9.65625 -9.234375 9.984375 -8.578125 9.984375 -7.734375 C 9.984375 -7.179688 9.851562 -6.707031 9.59375 -6.3125 C 9.34375 -5.914062 9.003906 -5.613281 8.578125 -5.40625 Z M 3.046875 -9.21875 L 3.046875 -5.875 L 6.109375 -5.875 C 6.867188 -5.875 7.453125 -6.015625 7.859375 -6.296875 C 8.273438 -6.585938 8.484375 -7.003906 8.484375 -7.546875 C 8.484375 -8.097656 8.273438 -8.515625 7.859375 -8.796875 C 7.453125 -9.078125 6.867188 -9.21875 6.109375 -9.21875 Z M 6.484375 -1.203125 C 7.328125 -1.203125 7.960938 -1.34375 8.390625 -1.625 C 8.816406 -1.90625 9.03125 -2.34375 9.03125 -2.9375 C 9.03125 -4.09375 8.179688 -4.671875 6.484375 -4.671875 L 3.046875 -4.671875 L 3.046875 -1.203125 Z M 6.484375 -1.203125 "/></g></g></g><g fill="#c29450" fill-opacity="1"><g transform="translate(211.164788, 90.142064)"><g><path d="M 1.5625 -10.421875 L 3.046875 -10.421875 L 3.046875 -1.296875 L 8.703125 -1.296875 L 8.703125 0 L 1.5625 0 Z M 1.5625 -10.421875 "/></g></g></g><g fill="#c29450" fill-opacity="1"><g transform="translate(223.819493, 90.142064)"><g><path d="M 1.5625 -10.421875 L 3.046875 -10.421875 L 3.046875 0 L 1.5625 0 Z M 1.5625 -10.421875 "/></g></g></g><g fill="#c29450" fill-opacity="1"><g transform="translate(232.246743, 90.142064)"><g><path d="M 6.21875 0.125 C 5.175781 0.125 4.234375 -0.101562 3.390625 -0.5625 C 2.554688 -1.03125 1.898438 -1.664062 1.421875 -2.46875 C 0.953125 -3.28125 0.71875 -4.195312 0.71875 -5.21875 C 0.71875 -6.226562 0.953125 -7.132812 1.421875 -7.9375 C 1.898438 -8.75 2.5625 -9.382812 3.40625 -9.84375 C 4.25 -10.3125 5.191406 -10.546875 6.234375 -10.546875 C 7.046875 -10.546875 7.789062 -10.40625 8.46875 -10.125 C 9.144531 -9.851562 9.722656 -9.453125 10.203125 -8.921875 L 9.234375 -7.984375 C 8.453125 -8.804688 7.472656 -9.21875 6.296875 -9.21875 C 5.523438 -9.21875 4.828125 -9.039062 4.203125 -8.6875 C 3.578125 -8.34375 3.085938 -7.863281 2.734375 -7.25 C 2.378906 -6.644531 2.203125 -5.96875 2.203125 -5.21875 C 2.203125 -4.457031 2.378906 -3.769531 2.734375 -3.15625 C 3.085938 -2.550781 3.578125 -2.070312 4.203125 -1.71875 C 4.828125 -1.375 5.523438 -1.203125 6.296875 -1.203125 C 7.460938 -1.203125 8.441406 -1.617188 9.234375 -2.453125 L 10.203125 -1.515625 C 9.722656 -0.984375 9.144531 -0.578125 8.46875 -0.296875 C 7.789062 -0.015625 7.039062 0.125 6.21875 0.125 Z M 6.21875 0.125 "/></g></g></g><g fill="#c29450" fill-opacity="1"><g transform="translate(246.821666, 90.142064)"><g/></g></g><g fill="#c29450" fill-opacity="1"><g transform="translate(254.638613, 90.142064)"><g><path d="M 1.5625 -10.421875 L 3.046875 -10.421875 L 3.046875 -1.296875 L 8.703125 -1.296875 L 8.703125 0 L 1.5625 0 Z M 1.5625 -10.421875 "/></g></g></g><g fill="#c29450" fill-opacity="1"><g transform="translate(267.293319, 90.142064)"><g><path d="M 1.5625 -10.421875 L 3.046875 -10.421875 L 3.046875 0 L 1.5625 0 Z M 1.5625 -10.421875 "/></g></g></g><g fill="#c29450" fill-opacity="1"><g transform="translate(275.720569, 90.142064)"><g><path d="M 8.578125 -5.40625 C 9.179688 -5.238281 9.65625 -4.929688 10 -4.484375 C 10.351562 -4.046875 10.53125 -3.488281 10.53125 -2.8125 C 10.53125 -1.90625 10.1875 -1.207031 9.5 -0.71875 C 8.820312 -0.238281 7.832031 0 6.53125 0 L 1.5625 0 L 1.5625 -10.421875 L 6.234375 -10.421875 C 7.429688 -10.421875 8.351562 -10.179688 9 -9.703125 C 9.65625 -9.234375 9.984375 -8.578125 9.984375 -7.734375 C 9.984375 -7.179688 9.851562 -6.707031 9.59375 -6.3125 C 9.34375 -5.914062 9.003906 -5.613281 8.578125 -5.40625 Z M 3.046875 -9.21875 L 3.046875 -5.875 L 6.109375 -5.875 C 6.867188 -5.875 7.453125 -6.015625 7.859375 -6.296875 C 8.273438 -6.585938 8.484375 -7.003906 8.484375 -7.546875 C 8.484375 -8.097656 8.273438 -8.515625 7.859375 -8.796875 C 7.453125 -9.078125 6.867188 -9.21875 6.109375 -9.21875 Z M 6.484375 -1.203125 C 7.328125 -1.203125 7.960938 -1.34375 8.390625 -1.625 C 8.816406 -1.90625 9.03125 -2.34375 9.03125 -2.9375 C 9.03125 -4.09375 8.179688 -4.671875 6.484375 -4.671875 L 3.046875 -4.671875 L 3.046875 -1.203125 Z M 6.484375 -1.203125 "/></g></g></g><g fill="#c29450" fill-opacity="1"><g transform="translate(290.801599, 90.142064)"><g><path d="M 8.53125 0 L 6.28125 -3.203125 C 6 -3.179688 5.78125 -3.171875 5.625 -3.171875 L 3.046875 -3.171875 L 3.046875 0 L 1.5625 0 L 1.5625 -10.421875 L 5.625 -10.421875 C 6.976562 -10.421875 8.039062 -10.097656 8.8125 -9.453125 C 9.59375 -8.804688 9.984375 -7.921875 9.984375 -6.796875 C 9.984375 -5.984375 9.78125 -5.296875 9.375 -4.734375 C 8.976562 -4.171875 8.414062 -3.757812 7.6875 -3.5 L 10.15625 0 Z M 5.578125 -4.4375 C 6.523438 -4.4375 7.242188 -4.640625 7.734375 -5.046875 C 8.234375 -5.453125 8.484375 -6.035156 8.484375 -6.796875 C 8.484375 -7.546875 8.234375 -8.117188 7.734375 -8.515625 C 7.242188 -8.921875 6.523438 -9.125 5.578125 -9.125 L 3.046875 -9.125 L 3.046875 -4.4375 Z M 5.578125 -4.4375 "/></g></g></g><g fill="#c29450" fill-opacity="1"><g transform="translate(305.436056, 90.142064)"><g><path d="M 8.203125 -2.609375 L 2.671875 -2.609375 L 1.515625 0 L -0.015625 0 L 4.703125 -10.421875 L 6.171875 -10.421875 L 10.921875 0 L 9.34375 0 Z M 7.6875 -3.796875 L 5.4375 -8.90625 L 3.1875 -3.796875 Z M 7.6875 -3.796875 "/></g></g></g><g fill="#c29450" fill-opacity="1"><g transform="translate(320.14494, 90.142064)"><g><path d="M 8.53125 0 L 6.28125 -3.203125 C 6 -3.179688 5.78125 -3.171875 5.625 -3.171875 L 3.046875 -3.171875 L 3.046875 0 L 1.5625 0 L 1.5625 -10.421875 L 5.625 -10.421875 C 6.976562 -10.421875 8.039062 -10.097656 8.8125 -9.453125 C 9.59375 -8.804688 9.984375 -7.921875 9.984375 -6.796875 C 9.984375 -5.984375 9.78125 -5.296875 9.375 -4.734375 C 8.976562 -4.171875 8.414062 -3.757812 7.6875 -3.5 L 10.15625 0 Z M 5.578125 -4.4375 C 6.523438 -4.4375 7.242188 -4.640625 7.734375 -5.046875 C 8.234375 -5.453125 8.484375 -6.035156 8.484375 -6.796875 C 8.484375 -7.546875 8.234375 -8.117188 7.734375 -8.515625 C 7.242188 -8.921875 6.523438 -9.125 5.578125 -9.125 L 3.046875 -9.125 L 3.046875 -4.4375 Z M 5.578125 -4.4375 "/></g></g></g><g fill="#c29450" fill-opacity="1"><g transform="translate(334.779398, 90.142064)"><g><path d="M 5.546875 -3.609375 L 5.546875 0 L 4.078125 0 L 4.078125 -3.640625 L -0.0625 -10.421875 L 1.53125 -10.421875 L 4.875 -4.921875 L 8.21875 -10.421875 L 9.6875 -10.421875 Z M 5.546875 -3.609375 "/></g></g></g></svg>