<svg xmlns="http://www.w3.org/2000/svg" xmlns:xlink="http://www.w3.org/1999/xlink" width="500" zoomAndPan="magnify" viewBox="0 0 375 374.999991" height="500" preserveAspectRatio="xMidYMid meet" version="1.0"><defs><g/><clipPath id="adcf90811c"><path d="M 13.710938 125.652344 L 161.273438 125.652344 L 161.273438 252.34375 L 13.710938 252.34375 Z M 13.710938 125.652344 " clip-rule="nonzero"/></clipPath><clipPath id="6543b3c697"><path d="M 155 231.054688 L 181.410156 231.054688 L 181.410156 252.34375 L 155 252.34375 Z M 155 231.054688 " clip-rule="nonzero"/></clipPath><clipPath id="08c0732703"><path d="M 200.605469 125.652344 L 348.097656 125.652344 L 348.097656 252.34375 L 200.605469 252.34375 Z M 200.605469 125.652344 " clip-rule="nonzero"/></clipPath><clipPath id="64fc01bc4c"><path d="M 180.46875 231.054688 L 206.898438 231.054688 L 206.898438 252.34375 L 180.46875 252.34375 Z M 180.46875 231.054688 " clip-rule="nonzero"/></clipPath></defs><g clip-path="url(#adcf90811c)"><path fill="#2f4f76" d="M 160.230469 251.121094 C 160.183594 251.101562 160.148438 251.089844 160.125 251.085938 C 160.144531 251.097656 160.179688 251.113281 160.226562 251.132812 C 160.089844 251.53125 159.960938 251.9375 159.84375 252.34375 C 158.242188 251.871094 156.648438 251.421875 155.042969 250.984375 C 109.578125 238.46875 61.351562 235.96875 13.710938 243.992188 C 22.375 213.53125 31.046875 183.078125 39.710938 152.621094 C 43.402344 139.644531 53.671875 129.59375 66.710938 126.140625 C 67.3125 125.980469 67.910156 125.824219 68.507812 125.667969 C 57.351562 159.621094 46.191406 193.574219 35.035156 227.527344 C 72.433594 222.753906 126.910156 231.332031 156.765625 246.476562 C 158.300781 247.253906 159.765625 248.050781 161.160156 248.863281 C 160.808594 249.589844 160.496094 250.34375 160.230469 251.121094 " fill-opacity="1" fill-rule="nonzero"/></g><path fill="#196fa4" d="M 105.417969 105.222656 C 105.191406 105.273438 104.964844 105.320312 104.742188 105.371094 C 91.550781 108.265625 80.886719 117.941406 76.679688 130.773438 C 67.121094 159.925781 58.101562 187.421875 48.246094 217.488281 C 115.242188 214.355469 152.316406 238.09375 152.316406 238.09375 C 118.5625 208.378906 67.871094 208.5 67.871094 208.5 C 67.871094 208.5 92.925781 138.707031 105.417969 105.222656 " fill-opacity="1" fill-rule="nonzero"/><path fill="#50a5cd" d="M 140.988281 89.175781 C 140.914062 89.191406 140.835938 89.207031 140.757812 89.226562 C 127.558594 92.078125 116.898438 101.792969 112.691406 114.625 C 103.378906 143.039062 94.578125 169.859375 84.96875 199.179688 C 135.335938 205.730469 156.554688 236.160156 156.554688 236.160156 C 146.144531 205.527344 103.304688 193.316406 103.304688 193.316406 C 103.304688 193.316406 128.75 121.984375 140.988281 89.175781 " fill-opacity="1" fill-rule="nonzero"/><g clip-path="url(#6543b3c697)"><path fill="#2f4f76" d="M 181.191406 231.21875 C 170.460938 231.21875 161.179688 237.445312 156.765625 246.476562 C 156.347656 247.332031 155.972656 248.214844 155.644531 249.121094 C 155.425781 249.730469 155.226562 250.355469 155.042969 250.984375 C 156.648438 251.421875 158.242188 251.871094 159.84375 252.34375 C 159.960938 251.9375 160.089844 251.53125 160.226562 251.132812 L 160.230469 251.121094 C 160.496094 250.34375 160.808594 249.589844 161.160156 248.863281 C 164.71875 241.378906 172.355469 236.203125 181.191406 236.203125 L 181.191406 231.21875 " fill-opacity="1" fill-rule="nonzero"/></g><path fill="#50a5cd" d="M 211.519531 93.390625 C 228.339844 74.988281 235.324219 54.050781 231.441406 25.117188 C 241.894531 52.273438 242.324219 82.304688 222.742188 106.382812 C 189.460938 147.300781 128.839844 153.191406 126.277344 200.871094 C 117.824219 144.011719 176.050781 132.210938 211.519531 93.390625 " fill-opacity="1" fill-rule="nonzero"/><path fill="#f6c275" d="M 161.230469 76.242188 C 161.230469 87.644531 169.125 96.886719 178.867188 96.886719 C 188.605469 96.886719 196.503906 87.644531 196.503906 76.242188 C 196.503906 64.84375 188.605469 55.601562 178.867188 55.601562 C 169.125 55.601562 161.230469 64.84375 161.230469 76.242188 " fill-opacity="1" fill-rule="nonzero"/><g clip-path="url(#08c0732703)"><path fill="#2f4f76" d="M 201.578125 251.121094 C 201.625 251.101562 201.660156 251.089844 201.683594 251.085938 C 201.664062 251.097656 201.628906 251.113281 201.582031 251.132812 C 201.71875 251.53125 201.847656 251.9375 201.964844 252.34375 C 203.566406 251.871094 205.160156 251.421875 206.765625 250.984375 C 252.230469 238.46875 300.457031 235.96875 348.097656 243.992188 C 339.429688 213.53125 330.761719 183.078125 322.097656 152.621094 C 318.40625 139.644531 308.136719 129.59375 295.097656 126.140625 C 294.496094 125.980469 293.898438 125.824219 293.296875 125.667969 C 304.457031 159.621094 315.617188 193.574219 326.773438 227.527344 C 289.375 222.753906 234.898438 231.332031 205.042969 246.476562 C 203.507812 247.253906 202.042969 248.050781 200.648438 248.863281 C 201 249.589844 201.3125 250.34375 201.578125 251.121094 " fill-opacity="1" fill-rule="nonzero"/></g><path fill="#196fa4" d="M 256.390625 105.222656 C 256.617188 105.273438 256.84375 105.320312 257.066406 105.371094 C 270.257812 108.265625 280.925781 117.941406 285.132812 130.773438 C 294.6875 159.925781 303.707031 187.421875 313.5625 217.488281 C 246.566406 214.355469 209.492188 238.09375 209.492188 238.09375 C 243.246094 208.378906 293.9375 208.5 293.9375 208.5 C 293.9375 208.5 268.882812 138.707031 256.390625 105.222656 " fill-opacity="1" fill-rule="nonzero"/><path fill="#50a5cd" d="M 205.011719 236.160156 C 205.011719 236.160156 226.230469 205.726562 276.601562 199.179688 C 267.113281 170.246094 258.417969 143.738281 249.242188 115.738281 C 245.566406 121.28125 240.996094 126.269531 235.710938 130.558594 C 246.90625 161.480469 258.265625 193.316406 258.265625 193.316406 C 258.265625 193.316406 215.425781 205.527344 205.011719 236.160156 " fill-opacity="1" fill-rule="nonzero"/><g clip-path="url(#64fc01bc4c)"><path fill="#2f4f76" d="M 180.621094 236.203125 C 189.453125 236.203125 197.089844 241.378906 200.648438 248.863281 C 201 249.589844 201.3125 250.34375 201.578125 251.121094 L 201.582031 251.132812 C 201.71875 251.53125 201.847656 251.9375 201.964844 252.34375 C 203.566406 251.871094 205.160156 251.421875 206.765625 250.984375 C 206.582031 250.355469 206.382812 249.730469 206.164062 249.121094 C 205.835938 248.214844 205.460938 247.332031 205.042969 246.476562 C 200.628906 237.445312 191.347656 231.21875 180.621094 231.21875 L 180.621094 236.203125 " fill-opacity="1" fill-rule="nonzero"/></g><path fill="#f6c275" d="M 222.175781 136.996094 C 237.992188 127.992188 250.089844 113.925781 254.554688 96.535156 C 255.796875 119.484375 244.390625 139.667969 226.042969 152.105469 C 195.042969 173.113281 149.964844 173.171875 132.738281 202.960938 C 139.8125 164.304688 188.179688 156.363281 222.175781 136.996094 " fill-opacity="1" fill-rule="nonzero"/><path fill="#f6cf95" d="M 215.113281 4.808594 C 225.257812 13.703125 225.675781 15.746094 219.8125 27.898438 C 228.707031 17.753906 230.75 17.335938 242.898438 23.199219 C 232.757812 14.304688 232.339844 12.261719 238.203125 0.113281 C 229.308594 10.253906 227.265625 10.671875 215.113281 4.808594 " fill-opacity="1" fill-rule="nonzero"/><path fill="#f6cf95" d="M 257.171875 49.386719 C 260.664062 49.863281 261.050781 50.246094 261.523438 53.742188 C 262 50.246094 262.386719 49.863281 265.882812 49.390625 C 262.386719 48.910156 262.003906 48.527344 261.527344 45.03125 C 261.050781 48.527344 260.664062 48.910156 257.171875 49.386719 " fill-opacity="1" fill-rule="nonzero"/><path fill="#f6cf95" d="M 196.15625 46.742188 C 203.261719 47.710938 204.042969 48.496094 205.007812 55.601562 C 205.976562 48.496094 206.761719 47.714844 213.867188 46.75 C 206.761719 45.78125 205.980469 44.996094 205.015625 37.894531 C 204.046875 44.996094 203.261719 45.78125 196.15625 46.742188 " fill-opacity="1" fill-rule="nonzero"/><g fill="#2f4f76" fill-opacity="1"><g transform="translate(6.611678, 295.691058)"><g><path d="M 3.78125 -31.875 L 11.15625 -31.875 L 11.15625 -6.015625 L 27.140625 -6.015625 L 27.140625 0 L 3.78125 0 Z M 3.78125 -31.875 "/></g></g></g><g fill="#2f4f76" fill-opacity="1"><g transform="translate(38.972608, 295.691058)"><g><path d="M 28.453125 -5.921875 L 28.453125 0 L 3.78125 0 L 3.78125 -31.875 L 27.859375 -31.875 L 27.859375 -25.953125 L 11.109375 -25.953125 L 11.109375 -19.03125 L 25.90625 -19.03125 L 25.90625 -13.296875 L 11.109375 -13.296875 L 11.109375 -5.921875 Z M 28.453125 -5.921875 "/></g></g></g><g fill="#2f4f76" fill-opacity="1"><g transform="translate(74.382792, 295.691058)"><g><path d="M 28.453125 -5.921875 L 28.453125 0 L 3.78125 0 L 3.78125 -31.875 L 27.859375 -31.875 L 27.859375 -25.953125 L 11.109375 -25.953125 L 11.109375 -19.03125 L 25.90625 -19.03125 L 25.90625 -13.296875 L 11.109375 -13.296875 L 11.109375 -5.921875 Z M 28.453125 -5.921875 "/></g></g></g><g fill="#2f4f76" fill-opacity="1"><g transform="translate(109.792974, 295.691058)"><g/></g></g><g fill="#2f4f76" fill-opacity="1"><g transform="translate(127.5448, 295.691058)"><g><path d="M 19.03125 0.546875 C 15.78125 0.546875 12.84375 -0.15625 10.21875 -1.5625 C 7.59375 -2.976562 5.53125 -4.9375 4.03125 -7.4375 C 2.53125 -9.945312 1.78125 -12.78125 1.78125 -15.9375 C 1.78125 -19.09375 2.53125 -21.921875 4.03125 -24.421875 C 5.53125 -26.929688 7.59375 -28.890625 10.21875 -30.296875 C 12.84375 -31.710938 15.796875 -32.421875 19.078125 -32.421875 C 21.835938 -32.421875 24.332031 -31.929688 26.5625 -30.953125 C 28.789062 -29.984375 30.664062 -28.585938 32.1875 -26.765625 L 27.453125 -22.40625 C 25.296875 -24.894531 22.625 -26.140625 19.4375 -26.140625 C 17.46875 -26.140625 15.707031 -25.707031 14.15625 -24.84375 C 12.613281 -23.976562 11.410156 -22.769531 10.546875 -21.21875 C 9.679688 -19.664062 9.25 -17.90625 9.25 -15.9375 C 9.25 -13.957031 9.679688 -12.191406 10.546875 -10.640625 C 11.410156 -9.097656 12.613281 -7.894531 14.15625 -7.03125 C 15.707031 -6.164062 17.46875 -5.734375 19.4375 -5.734375 C 22.625 -5.734375 25.296875 -6.992188 27.453125 -9.515625 L 32.1875 -5.140625 C 30.664062 -3.296875 28.78125 -1.882812 26.53125 -0.90625 C 24.289062 0.0625 21.789062 0.546875 19.03125 0.546875 Z M 19.03125 0.546875 "/></g></g></g><g fill="#2f4f76" fill-opacity="1"><g transform="translate(165.776694, 295.691058)"><g><path d="M 19.21875 0.546875 C 15.90625 0.546875 12.921875 -0.164062 10.265625 -1.59375 C 7.609375 -3.019531 5.53125 -4.984375 4.03125 -7.484375 C 2.53125 -9.992188 1.78125 -12.8125 1.78125 -15.9375 C 1.78125 -19.0625 2.53125 -21.875 4.03125 -24.375 C 5.53125 -26.882812 7.609375 -28.851562 10.265625 -30.28125 C 12.921875 -31.707031 15.90625 -32.421875 19.21875 -32.421875 C 22.519531 -32.421875 25.488281 -31.707031 28.125 -30.28125 C 30.769531 -28.851562 32.851562 -26.882812 34.375 -24.375 C 35.894531 -21.875 36.65625 -19.0625 36.65625 -15.9375 C 36.65625 -12.8125 35.894531 -9.992188 34.375 -7.484375 C 32.851562 -4.984375 30.769531 -3.019531 28.125 -1.59375 C 25.488281 -0.164062 22.519531 0.546875 19.21875 0.546875 Z M 19.21875 -5.734375 C 21.09375 -5.734375 22.789062 -6.164062 24.3125 -7.03125 C 25.832031 -7.894531 27.023438 -9.097656 27.890625 -10.640625 C 28.753906 -12.191406 29.1875 -13.957031 29.1875 -15.9375 C 29.1875 -17.90625 28.753906 -19.664062 27.890625 -21.21875 C 27.023438 -22.769531 25.832031 -23.976562 24.3125 -24.84375 C 22.789062 -25.707031 21.09375 -26.140625 19.21875 -26.140625 C 17.332031 -26.140625 15.628906 -25.707031 14.109375 -24.84375 C 12.597656 -23.976562 11.410156 -22.769531 10.546875 -21.21875 C 9.679688 -19.664062 9.25 -17.90625 9.25 -15.9375 C 9.25 -13.957031 9.679688 -12.191406 10.546875 -10.640625 C 11.410156 -9.097656 12.597656 -7.894531 14.109375 -7.03125 C 15.628906 -6.164062 17.332031 -5.734375 19.21875 -5.734375 Z M 19.21875 -5.734375 "/></g></g></g><g fill="#2f4f76" fill-opacity="1"><g transform="translate(209.060323, 295.691058)"><g><path d="M 17.9375 0.546875 C 13.382812 0.546875 9.835938 -0.710938 7.296875 -3.234375 C 4.765625 -5.753906 3.5 -9.351562 3.5 -14.03125 L 3.5 -31.875 L 10.875 -31.875 L 10.875 -14.296875 C 10.875 -8.585938 13.242188 -5.734375 17.984375 -5.734375 C 20.285156 -5.734375 22.046875 -6.421875 23.265625 -7.796875 C 24.484375 -9.179688 25.09375 -11.347656 25.09375 -14.296875 L 25.09375 -31.875 L 32.375 -31.875 L 32.375 -14.03125 C 32.375 -9.351562 31.101562 -5.753906 28.5625 -3.234375 C 26.03125 -0.710938 22.488281 0.546875 17.9375 0.546875 Z M 17.9375 0.546875 "/></g></g></g><g fill="#2f4f76" fill-opacity="1"><g transform="translate(249.795341, 295.691058)"><g><path d="M 33.015625 -31.875 L 33.015625 0 L 26.953125 0 L 11.0625 -19.34375 L 11.0625 0 L 3.78125 0 L 3.78125 -31.875 L 9.875 -31.875 L 25.71875 -12.515625 L 25.71875 -31.875 Z M 33.015625 -31.875 "/></g></g></g><g fill="#2f4f76" fill-opacity="1"><g transform="translate(291.440588, 295.691058)"><g><path d="M 10.375 -25.859375 L 0.1875 -25.859375 L 0.1875 -31.875 L 27.953125 -31.875 L 27.953125 -25.859375 L 17.75 -25.859375 L 17.75 0 L 10.375 0 Z M 10.375 -25.859375 "/></g></g></g><g fill="#2f4f76" fill-opacity="1"><g transform="translate(324.438686, 295.691058)"><g><path d="M 19.078125 -11.296875 L 19.078125 0 L 11.703125 0 L 11.703125 -11.390625 L -0.640625 -31.875 L 7.1875 -31.875 L 15.703125 -17.71875 L 24.21875 -31.875 L 31.46875 -31.875 Z M 19.078125 -11.296875 "/></g></g></g><g fill="#c29450" fill-opacity="1"><g transform="translate(67.190415, 327.906935)"><g><path d="M 6.890625 -12.765625 C 8.546875 -12.765625 9.847656 -12.367188 10.796875 -11.578125 C 11.742188 -10.785156 12.21875 -9.695312 12.21875 -8.3125 C 12.21875 -6.925781 11.742188 -5.835938 10.796875 -5.046875 C 9.847656 -4.253906 8.546875 -3.859375 6.890625 -3.859375 L 3.734375 -3.859375 L 3.734375 0 L 1.921875 0 L 1.921875 -12.765625 Z M 6.84375 -5.453125 C 7.988281 -5.453125 8.863281 -5.695312 9.46875 -6.1875 C 10.082031 -6.675781 10.390625 -7.382812 10.390625 -8.3125 C 10.390625 -9.238281 10.082031 -9.945312 9.46875 -10.4375 C 8.863281 -10.925781 7.988281 -11.171875 6.84375 -11.171875 L 3.734375 -11.171875 L 3.734375 -5.453125 Z M 6.84375 -5.453125 "/></g></g></g><g fill="#c29450" fill-opacity="1"><g transform="translate(85.017412, 327.906935)"><g><path d="M 7.203125 0.140625 C 5.503906 0.140625 4.179688 -0.34375 3.234375 -1.3125 C 2.285156 -2.28125 1.8125 -3.675781 1.8125 -5.5 L 1.8125 -12.765625 L 3.625 -12.765625 L 3.625 -5.578125 C 3.625 -2.847656 4.820312 -1.484375 7.21875 -1.484375 C 8.382812 -1.484375 9.273438 -1.816406 9.890625 -2.484375 C 10.515625 -3.160156 10.828125 -4.191406 10.828125 -5.578125 L 10.828125 -12.765625 L 12.59375 -12.765625 L 12.59375 -5.5 C 12.59375 -3.664062 12.117188 -2.265625 11.171875 -1.296875 C 10.222656 -0.335938 8.898438 0.140625 7.203125 0.140625 Z M 7.203125 0.140625 "/></g></g></g><g fill="#c29450" fill-opacity="1"><g transform="translate(104.101935, 327.906935)"><g><path d="M 10.5 -6.625 C 11.238281 -6.414062 11.820312 -6.039062 12.25 -5.5 C 12.675781 -4.957031 12.890625 -4.273438 12.890625 -3.453125 C 12.890625 -2.335938 12.472656 -1.484375 11.640625 -0.890625 C 10.804688 -0.296875 9.59375 0 8 0 L 1.921875 0 L 1.921875 -12.765625 L 7.640625 -12.765625 C 9.097656 -12.765625 10.222656 -12.472656 11.015625 -11.890625 C 11.816406 -11.304688 12.21875 -10.5 12.21875 -9.46875 C 12.21875 -8.789062 12.0625 -8.207031 11.75 -7.71875 C 11.4375 -7.238281 11.019531 -6.875 10.5 -6.625 Z M 3.734375 -11.28125 L 3.734375 -7.203125 L 7.46875 -7.203125 C 8.40625 -7.203125 9.125 -7.375 9.625 -7.71875 C 10.132812 -8.0625 10.390625 -8.570312 10.390625 -9.25 C 10.390625 -9.914062 10.132812 -10.421875 9.625 -10.765625 C 9.125 -11.109375 8.40625 -11.28125 7.46875 -11.28125 Z M 7.9375 -1.484375 C 8.96875 -1.484375 9.742188 -1.648438 10.265625 -1.984375 C 10.785156 -2.328125 11.046875 -2.863281 11.046875 -3.59375 C 11.046875 -5.007812 10.007812 -5.71875 7.9375 -5.71875 L 3.734375 -5.71875 L 3.734375 -1.484375 Z M 7.9375 -1.484375 "/></g></g></g><g fill="#c29450" fill-opacity="1"><g transform="translate(122.566809, 327.906935)"><g><path d="M 1.921875 -12.765625 L 3.734375 -12.765625 L 3.734375 -1.59375 L 10.65625 -1.59375 L 10.65625 0 L 1.921875 0 Z M 1.921875 -12.765625 "/></g></g></g><g fill="#c29450" fill-opacity="1"><g transform="translate(138.060988, 327.906935)"><g><path d="M 1.921875 -12.765625 L 3.734375 -12.765625 L 3.734375 0 L 1.921875 0 Z M 1.921875 -12.765625 "/></g></g></g><g fill="#c29450" fill-opacity="1"><g transform="translate(148.379219, 327.906935)"><g><path d="M 7.625 0.140625 C 6.34375 0.140625 5.1875 -0.140625 4.15625 -0.703125 C 3.132812 -1.265625 2.332031 -2.039062 1.75 -3.03125 C 1.164062 -4.019531 0.875 -5.132812 0.875 -6.375 C 0.875 -7.613281 1.164062 -8.726562 1.75 -9.71875 C 2.332031 -10.71875 3.140625 -11.5 4.171875 -12.0625 C 5.203125 -12.625 6.359375 -12.90625 7.640625 -12.90625 C 8.640625 -12.90625 9.550781 -12.738281 10.375 -12.40625 C 11.195312 -12.070312 11.898438 -11.578125 12.484375 -10.921875 L 11.3125 -9.78125 C 10.34375 -10.78125 9.144531 -11.28125 7.71875 -11.28125 C 6.769531 -11.28125 5.910156 -11.066406 5.140625 -10.640625 C 4.378906 -10.222656 3.78125 -9.640625 3.34375 -8.890625 C 2.914062 -8.140625 2.703125 -7.300781 2.703125 -6.375 C 2.703125 -5.457031 2.914062 -4.625 3.34375 -3.875 C 3.78125 -3.125 4.378906 -2.535156 5.140625 -2.109375 C 5.910156 -1.691406 6.769531 -1.484375 7.71875 -1.484375 C 9.132812 -1.484375 10.332031 -1.992188 11.3125 -3.015625 L 12.484375 -1.859375 C 11.898438 -1.203125 11.191406 -0.703125 10.359375 -0.359375 C 9.535156 -0.0234375 8.625 0.140625 7.625 0.140625 Z M 7.625 0.140625 "/></g></g></g><g fill="#c29450" fill-opacity="1"><g transform="translate(166.224444, 327.906935)"><g/></g></g><g fill="#c29450" fill-opacity="1"><g transform="translate(175.795442, 327.906935)"><g><path d="M 1.921875 -12.765625 L 3.734375 -12.765625 L 3.734375 -1.59375 L 10.65625 -1.59375 L 10.65625 0 L 1.921875 0 Z M 1.921875 -12.765625 "/></g></g></g><g fill="#c29450" fill-opacity="1"><g transform="translate(191.289621, 327.906935)"><g><path d="M 1.921875 -12.765625 L 3.734375 -12.765625 L 3.734375 0 L 1.921875 0 Z M 1.921875 -12.765625 "/></g></g></g><g fill="#c29450" fill-opacity="1"><g transform="translate(201.607853, 327.906935)"><g><path d="M 10.5 -6.625 C 11.238281 -6.414062 11.820312 -6.039062 12.25 -5.5 C 12.675781 -4.957031 12.890625 -4.273438 12.890625 -3.453125 C 12.890625 -2.335938 12.472656 -1.484375 11.640625 -0.890625 C 10.804688 -0.296875 9.59375 0 8 0 L 1.921875 0 L 1.921875 -12.765625 L 7.640625 -12.765625 C 9.097656 -12.765625 10.222656 -12.472656 11.015625 -11.890625 C 11.816406 -11.304688 12.21875 -10.5 12.21875 -9.46875 C 12.21875 -8.789062 12.0625 -8.207031 11.75 -7.71875 C 11.4375 -7.238281 11.019531 -6.875 10.5 -6.625 Z M 3.734375 -11.28125 L 3.734375 -7.203125 L 7.46875 -7.203125 C 8.40625 -7.203125 9.125 -7.375 9.625 -7.71875 C 10.132812 -8.0625 10.390625 -8.570312 10.390625 -9.25 C 10.390625 -9.914062 10.132812 -10.421875 9.625 -10.765625 C 9.125 -11.109375 8.40625 -11.28125 7.46875 -11.28125 Z M 7.9375 -1.484375 C 8.96875 -1.484375 9.742188 -1.648438 10.265625 -1.984375 C 10.785156 -2.328125 11.046875 -2.863281 11.046875 -3.59375 C 11.046875 -5.007812 10.007812 -5.71875 7.9375 -5.71875 L 3.734375 -5.71875 L 3.734375 -1.484375 Z M 7.9375 -1.484375 "/></g></g></g><g fill="#c29450" fill-opacity="1"><g transform="translate(220.072724, 327.906935)"><g><path d="M 10.453125 0 L 7.6875 -3.921875 C 7.351562 -3.898438 7.085938 -3.890625 6.890625 -3.890625 L 3.734375 -3.890625 L 3.734375 0 L 1.921875 0 L 1.921875 -12.765625 L 6.890625 -12.765625 C 8.546875 -12.765625 9.847656 -12.367188 10.796875 -11.578125 C 11.742188 -10.785156 12.21875 -9.695312 12.21875 -8.3125 C 12.21875 -7.332031 11.972656 -6.492188 11.484375 -5.796875 C 11.003906 -5.109375 10.3125 -4.601562 9.40625 -4.28125 L 12.4375 0 Z M 6.84375 -5.4375 C 7.988281 -5.4375 8.863281 -5.679688 9.46875 -6.171875 C 10.082031 -6.671875 10.390625 -7.382812 10.390625 -8.3125 C 10.390625 -9.238281 10.082031 -9.945312 9.46875 -10.4375 C 8.863281 -10.925781 7.988281 -11.171875 6.84375 -11.171875 L 3.734375 -11.171875 L 3.734375 -5.4375 Z M 6.84375 -5.4375 "/></g></g></g><g fill="#c29450" fill-opacity="1"><g transform="translate(237.990837, 327.906935)"><g><path d="M 10.046875 -3.1875 L 3.265625 -3.1875 L 1.859375 0 L -0.015625 0 L 5.765625 -12.765625 L 7.5625 -12.765625 L 13.359375 0 L 11.453125 0 Z M 9.40625 -4.65625 L 6.65625 -10.90625 L 3.90625 -4.65625 Z M 9.40625 -4.65625 "/></g></g></g><g fill="#c29450" fill-opacity="1"><g transform="translate(256.000096, 327.906935)"><g><path d="M 10.453125 0 L 7.6875 -3.921875 C 7.351562 -3.898438 7.085938 -3.890625 6.890625 -3.890625 L 3.734375 -3.890625 L 3.734375 0 L 1.921875 0 L 1.921875 -12.765625 L 6.890625 -12.765625 C 8.546875 -12.765625 9.847656 -12.367188 10.796875 -11.578125 C 11.742188 -10.785156 12.21875 -9.695312 12.21875 -8.3125 C 12.21875 -7.332031 11.972656 -6.492188 11.484375 -5.796875 C 11.003906 -5.109375 10.3125 -4.601562 9.40625 -4.28125 L 12.4375 0 Z M 6.84375 -5.4375 C 7.988281 -5.4375 8.863281 -5.679688 9.46875 -6.171875 C 10.082031 -6.671875 10.390625 -7.382812 10.390625 -8.3125 C 10.390625 -9.238281 10.082031 -9.945312 9.46875 -10.4375 C 8.863281 -10.925781 7.988281 -11.171875 6.84375 -11.171875 L 3.734375 -11.171875 L 3.734375 -5.4375 Z M 6.84375 -5.4375 "/></g></g></g><g fill="#c29450" fill-opacity="1"><g transform="translate(273.918219, 327.906935)"><g><path d="M 6.796875 -4.40625 L 6.796875 0 L 5 0 L 5 -4.453125 L -0.078125 -12.765625 L 1.875 -12.765625 L 5.96875 -6.03125 L 10.0625 -12.765625 L 11.875 -12.765625 Z M 6.796875 -4.40625 "/></g></g></g></svg>