<svg xmlns="http://www.w3.org/2000/svg" xmlns:xlink="http://www.w3.org/1999/xlink" width="500" zoomAndPan="magnify" viewBox="0 0 375 374.999991" height="500" preserveAspectRatio="xMidYMid meet" version="1.0"><defs><g/><clipPath id="626acb8b11"><path d="M 4.179688 110.003906 L 60.992188 110.003906 L 60.992188 158.78125 L 4.179688 158.78125 Z M 4.179688 110.003906 " clip-rule="nonzero"/></clipPath><clipPath id="0534dc19cb"><path d="M 58.566406 150.585938 L 68.742188 150.585938 L 68.742188 158.78125 L 58.566406 158.78125 Z M 58.566406 150.585938 " clip-rule="nonzero"/></clipPath><clipPath id="92f7659532"><path d="M 76.132812 110.003906 L 132.917969 110.003906 L 132.917969 158.78125 L 76.132812 158.78125 Z M 76.132812 110.003906 " clip-rule="nonzero"/></clipPath><clipPath id="037620637c"><path d="M 68.378906 150.585938 L 78.554688 150.585938 L 78.554688 158.78125 L 68.378906 158.78125 Z M 68.378906 150.585938 " clip-rule="nonzero"/></clipPath><clipPath id="71c5350f5c"><path d="M 81 61.632812 L 93 61.632812 L 93 73 L 81 73 Z M 81 61.632812 " clip-rule="nonzero"/></clipPath></defs><g clip-path="url(#626acb8b11)"><path fill="#2f4f76" d="M 60.589844 158.308594 C 60.570312 158.304688 60.558594 158.300781 60.546875 158.296875 C 60.554688 158.300781 60.570312 158.308594 60.585938 158.316406 C 60.535156 158.46875 60.484375 158.625 60.4375 158.78125 C 59.824219 158.601562 59.210938 158.425781 58.589844 158.257812 C 41.085938 153.441406 22.519531 152.476562 4.179688 155.566406 C 7.515625 143.839844 10.851562 132.113281 14.1875 120.386719 C 15.609375 115.394531 19.5625 111.523438 24.582031 110.191406 C 24.8125 110.132812 25.046875 110.070312 25.277344 110.011719 C 20.980469 123.082031 16.683594 136.15625 12.386719 149.226562 C 26.785156 147.390625 47.757812 150.691406 59.253906 156.523438 C 59.847656 156.824219 60.410156 157.128906 60.945312 157.441406 C 60.8125 157.722656 60.691406 158.011719 60.589844 158.308594 " fill-opacity="1" fill-rule="nonzero"/></g><path fill="#196fa4" d="M 39.484375 102.140625 C 39.398438 102.160156 39.3125 102.179688 39.226562 102.195312 C 34.144531 103.3125 30.039062 107.035156 28.421875 111.976562 C 24.742188 123.199219 21.269531 133.785156 17.476562 145.363281 C 43.269531 144.15625 57.542969 153.296875 57.542969 153.296875 C 44.546875 141.855469 25.03125 141.902344 25.03125 141.902344 C 25.03125 141.902344 34.675781 115.03125 39.484375 102.140625 " fill-opacity="1" fill-rule="nonzero"/><path fill="#50a5cd" d="M 53.179688 95.960938 C 53.152344 95.96875 53.121094 95.976562 53.089844 95.980469 C 48.007812 97.078125 43.90625 100.820312 42.285156 105.761719 C 38.699219 116.699219 35.3125 127.027344 31.613281 138.3125 C 51.003906 140.835938 59.171875 152.550781 59.171875 152.550781 C 55.164062 140.757812 38.671875 136.054688 38.671875 136.054688 C 38.671875 136.054688 48.46875 108.59375 53.179688 95.960938 " fill-opacity="1" fill-rule="nonzero"/><g clip-path="url(#0534dc19cb)"><path fill="#2f4f76" d="M 68.65625 150.648438 C 64.527344 150.648438 60.953125 153.046875 59.253906 156.523438 C 59.09375 156.851562 58.949219 157.191406 58.824219 157.539062 C 58.738281 157.777344 58.660156 158.015625 58.589844 158.257812 C 59.210938 158.425781 59.824219 158.601562 60.4375 158.78125 C 60.484375 158.625 60.535156 158.46875 60.585938 158.316406 L 60.589844 158.308594 C 60.691406 158.011719 60.8125 157.722656 60.945312 157.441406 C 62.316406 154.558594 65.257812 152.566406 68.65625 152.566406 L 68.65625 150.648438 " fill-opacity="1" fill-rule="nonzero"/></g><path fill="#50a5cd" d="M 80.335938 97.585938 C 86.808594 90.5 89.5 82.4375 88.003906 71.300781 C 92.03125 81.753906 92.195312 93.316406 84.65625 102.585938 C 71.84375 118.339844 48.503906 120.609375 47.515625 138.964844 C 44.261719 117.074219 66.679688 112.53125 80.335938 97.585938 " fill-opacity="1" fill-rule="nonzero"/><path fill="#f6c275" d="M 60.972656 90.984375 C 60.972656 95.371094 64.011719 98.929688 67.761719 98.929688 C 71.511719 98.929688 74.554688 95.371094 74.554688 90.984375 C 74.554688 86.59375 71.511719 83.035156 67.761719 83.035156 C 64.011719 83.035156 60.972656 86.59375 60.972656 90.984375 " fill-opacity="1" fill-rule="nonzero"/><g clip-path="url(#92f7659532)"><path fill="#2f4f76" d="M 76.507812 158.308594 C 76.523438 158.304688 76.539062 158.300781 76.546875 158.296875 C 76.539062 158.300781 76.527344 158.308594 76.507812 158.316406 C 76.5625 158.46875 76.609375 158.625 76.65625 158.78125 C 77.273438 158.601562 77.886719 158.425781 78.503906 158.257812 C 96.007812 153.441406 114.574219 152.476562 132.917969 155.566406 C 129.582031 143.839844 126.242188 132.113281 122.90625 120.386719 C 121.484375 115.394531 117.53125 111.523438 112.511719 110.191406 C 112.28125 110.132812 112.050781 110.070312 111.820312 110.011719 C 116.117188 123.082031 120.410156 136.15625 124.707031 149.226562 C 110.308594 147.390625 89.335938 150.691406 77.839844 156.523438 C 77.25 156.824219 76.6875 157.128906 76.148438 157.441406 C 76.285156 157.722656 76.40625 158.011719 76.507812 158.308594 " fill-opacity="1" fill-rule="nonzero"/></g><path fill="#196fa4" d="M 97.609375 102.140625 C 97.699219 102.160156 97.785156 102.179688 97.871094 102.195312 C 102.949219 103.3125 107.054688 107.035156 108.675781 111.976562 C 112.355469 123.199219 115.828125 133.785156 119.621094 145.363281 C 93.828125 144.15625 79.554688 153.296875 79.554688 153.296875 C 92.550781 141.855469 112.066406 141.902344 112.066406 141.902344 C 112.066406 141.902344 102.421875 115.03125 97.609375 102.140625 " fill-opacity="1" fill-rule="nonzero"/><path fill="#50a5cd" d="M 77.828125 152.550781 C 77.828125 152.550781 86 140.835938 105.390625 138.3125 C 101.738281 127.175781 98.390625 116.96875 94.859375 106.1875 C 93.441406 108.324219 91.683594 110.242188 89.648438 111.894531 C 93.957031 123.800781 98.332031 136.054688 98.332031 136.054688 C 98.332031 136.054688 81.839844 140.757812 77.828125 152.550781 " fill-opacity="1" fill-rule="nonzero"/><g clip-path="url(#037620637c)"><path fill="#2f4f76" d="M 68.4375 152.566406 C 71.839844 152.566406 74.777344 154.558594 76.148438 157.441406 C 76.285156 157.722656 76.40625 158.011719 76.507812 158.308594 L 76.507812 158.316406 C 76.5625 158.46875 76.609375 158.625 76.65625 158.78125 C 77.273438 158.601562 77.886719 158.425781 78.503906 158.257812 C 78.433594 158.015625 78.355469 157.777344 78.273438 157.539062 C 78.144531 157.191406 78 156.851562 77.839844 156.523438 C 76.140625 153.046875 72.570312 150.648438 68.4375 150.648438 L 68.4375 152.566406 " fill-opacity="1" fill-rule="nonzero"/></g><path fill="#f6c275" d="M 84.4375 114.371094 C 90.527344 110.90625 95.183594 105.492188 96.902344 98.796875 C 97.378906 107.632812 92.988281 115.402344 85.925781 120.191406 C 73.992188 128.277344 56.636719 128.300781 50.003906 139.769531 C 52.726562 124.886719 71.347656 121.828125 84.4375 114.371094 " fill-opacity="1" fill-rule="nonzero"/><g clip-path="url(#71c5350f5c)"><path fill="#f6cf95" d="M 81.71875 63.480469 C 85.625 66.90625 85.785156 67.691406 83.527344 72.371094 C 86.953125 68.464844 87.738281 68.304688 92.417969 70.5625 C 88.511719 67.136719 88.351562 66.351562 90.609375 61.671875 C 87.183594 65.578125 86.398438 65.738281 81.71875 63.480469 " fill-opacity="1" fill-rule="nonzero"/></g><path fill="#f6cf95" d="M 97.910156 80.644531 C 99.257812 80.828125 99.402344 80.976562 99.585938 82.320312 C 99.769531 80.976562 99.917969 80.828125 101.265625 80.644531 C 99.917969 80.460938 99.769531 80.3125 99.589844 78.964844 C 99.40625 80.3125 99.257812 80.460938 97.910156 80.644531 " fill-opacity="1" fill-rule="nonzero"/><path fill="#f6cf95" d="M 74.421875 79.625 C 77.15625 80 77.457031 80.300781 77.828125 83.035156 C 78.199219 80.300781 78.503906 80 81.238281 79.628906 C 78.503906 79.253906 78.203125 78.953125 77.832031 76.21875 C 77.457031 78.953125 77.15625 79.253906 74.421875 79.625 " fill-opacity="1" fill-rule="nonzero"/><g fill="#2f4f76" fill-opacity="1"><g transform="translate(132.928678, 132.790099)"><g><path d="M 2.578125 -21.71875 L 7.59375 -21.71875 L 7.59375 -4.09375 L 18.484375 -4.09375 L 18.484375 0 L 2.578125 0 Z M 2.578125 -21.71875 "/></g></g></g><g fill="#2f4f76" fill-opacity="1"><g transform="translate(154.970332, 132.790099)"><g><path d="M 19.390625 -4.03125 L 19.390625 0 L 2.578125 0 L 2.578125 -21.71875 L 18.984375 -21.71875 L 18.984375 -17.671875 L 7.5625 -17.671875 L 7.5625 -12.96875 L 17.640625 -12.96875 L 17.640625 -9.0625 L 7.5625 -9.0625 L 7.5625 -4.03125 Z M 19.390625 -4.03125 "/></g></g></g><g fill="#2f4f76" fill-opacity="1"><g transform="translate(179.088892, 132.790099)"><g><path d="M 19.390625 -4.03125 L 19.390625 0 L 2.578125 0 L 2.578125 -21.71875 L 18.984375 -21.71875 L 18.984375 -17.671875 L 7.5625 -17.671875 L 7.5625 -12.96875 L 17.640625 -12.96875 L 17.640625 -9.0625 L 7.5625 -9.0625 L 7.5625 -4.03125 Z M 19.390625 -4.03125 "/></g></g></g><g fill="#2f4f76" fill-opacity="1"><g transform="translate(203.207451, 132.790099)"><g/></g></g><g fill="#2f4f76" fill-opacity="1"><g transform="translate(215.298562, 132.790099)"><g><path d="M 12.96875 0.375 C 10.75 0.375 8.742188 -0.101562 6.953125 -1.0625 C 5.171875 -2.03125 3.765625 -3.363281 2.734375 -5.0625 C 1.710938 -6.769531 1.203125 -8.703125 1.203125 -10.859375 C 1.203125 -13.003906 1.710938 -14.929688 2.734375 -16.640625 C 3.765625 -18.347656 5.171875 -19.679688 6.953125 -20.640625 C 8.742188 -21.597656 10.757812 -22.078125 13 -22.078125 C 14.875 -22.078125 16.570312 -21.742188 18.09375 -21.078125 C 19.613281 -20.421875 20.890625 -19.472656 21.921875 -18.234375 L 18.703125 -15.265625 C 17.234375 -16.953125 15.414062 -17.796875 13.25 -17.796875 C 11.90625 -17.796875 10.703125 -17.5 9.640625 -16.90625 C 8.585938 -16.320312 7.765625 -15.503906 7.171875 -14.453125 C 6.585938 -13.398438 6.296875 -12.203125 6.296875 -10.859375 C 6.296875 -9.515625 6.585938 -8.3125 7.171875 -7.25 C 7.765625 -6.195312 8.585938 -5.375 9.640625 -4.78125 C 10.703125 -4.195312 11.90625 -3.90625 13.25 -3.90625 C 15.414062 -3.90625 17.234375 -4.765625 18.703125 -6.484375 L 21.921875 -3.5 C 20.890625 -2.238281 19.609375 -1.273438 18.078125 -0.609375 C 16.546875 0.046875 14.84375 0.375 12.96875 0.375 Z M 12.96875 0.375 "/></g></g></g><g fill="#2f4f76" fill-opacity="1"><g transform="translate(241.339043, 132.790099)"><g><path d="M 13.09375 0.375 C 10.832031 0.375 8.796875 -0.109375 6.984375 -1.078125 C 5.179688 -2.054688 3.765625 -3.394531 2.734375 -5.09375 C 1.710938 -6.800781 1.203125 -8.722656 1.203125 -10.859375 C 1.203125 -12.984375 1.710938 -14.898438 2.734375 -16.609375 C 3.765625 -18.316406 5.179688 -19.65625 6.984375 -20.625 C 8.796875 -21.59375 10.832031 -22.078125 13.09375 -22.078125 C 15.34375 -22.078125 17.363281 -21.59375 19.15625 -20.625 C 20.957031 -19.65625 22.375 -18.316406 23.40625 -16.609375 C 24.445312 -14.898438 24.96875 -12.984375 24.96875 -10.859375 C 24.96875 -8.722656 24.445312 -6.800781 23.40625 -5.09375 C 22.375 -3.394531 20.957031 -2.054688 19.15625 -1.078125 C 17.363281 -0.109375 15.34375 0.375 13.09375 0.375 Z M 13.09375 -3.90625 C 14.375 -3.90625 15.53125 -4.195312 16.5625 -4.78125 C 17.59375 -5.375 18.398438 -6.195312 18.984375 -7.25 C 19.578125 -8.3125 19.875 -9.515625 19.875 -10.859375 C 19.875 -12.203125 19.578125 -13.398438 18.984375 -14.453125 C 18.398438 -15.503906 17.59375 -16.320312 16.5625 -16.90625 C 15.53125 -17.5 14.375 -17.796875 13.09375 -17.796875 C 11.8125 -17.796875 10.648438 -17.5 9.609375 -16.90625 C 8.578125 -16.320312 7.765625 -15.503906 7.171875 -14.453125 C 6.585938 -13.398438 6.296875 -12.203125 6.296875 -10.859375 C 6.296875 -9.515625 6.585938 -8.3125 7.171875 -7.25 C 7.765625 -6.195312 8.578125 -5.375 9.609375 -4.78125 C 10.648438 -4.195312 11.8125 -3.90625 13.09375 -3.90625 Z M 13.09375 -3.90625 "/></g></g></g><g fill="#2f4f76" fill-opacity="1"><g transform="translate(270.820358, 132.790099)"><g><path d="M 12.21875 0.375 C 9.113281 0.375 6.695312 -0.484375 4.96875 -2.203125 C 3.25 -3.921875 2.390625 -6.367188 2.390625 -9.546875 L 2.390625 -21.71875 L 7.40625 -21.71875 L 7.40625 -9.734375 C 7.40625 -5.847656 9.019531 -3.90625 12.25 -3.90625 C 13.820312 -3.90625 15.019531 -4.375 15.84375 -5.3125 C 16.675781 -6.257812 17.09375 -7.734375 17.09375 -9.734375 L 17.09375 -21.71875 L 22.046875 -21.71875 L 22.046875 -9.546875 C 22.046875 -6.367188 21.179688 -3.921875 19.453125 -2.203125 C 17.734375 -0.484375 15.320312 0.375 12.21875 0.375 Z M 12.21875 0.375 "/></g></g></g><g fill="#2f4f76" fill-opacity="1"><g transform="translate(298.565765, 132.790099)"><g><path d="M 22.484375 -21.71875 L 22.484375 0 L 18.359375 0 L 7.53125 -13.1875 L 7.53125 0 L 2.578125 0 L 2.578125 -21.71875 L 6.734375 -21.71875 L 17.53125 -8.53125 L 17.53125 -21.71875 Z M 22.484375 -21.71875 "/></g></g></g><g fill="#2f4f76" fill-opacity="1"><g transform="translate(326.931147, 132.790099)"><g><path d="M 7.078125 -17.609375 L 0.125 -17.609375 L 0.125 -21.71875 L 19.046875 -21.71875 L 19.046875 -17.609375 L 12.09375 -17.609375 L 12.09375 0 L 7.078125 0 Z M 7.078125 -17.609375 "/></g></g></g><g fill="#2f4f76" fill-opacity="1"><g transform="translate(349.406789, 132.790099)"><g><path d="M 13 -7.6875 L 13 0 L 7.96875 0 L 7.96875 -7.75 L -0.4375 -21.71875 L 4.90625 -21.71875 L 10.703125 -12.0625 L 16.5 -21.71875 L 21.4375 -21.71875 Z M 13 -7.6875 "/></g></g></g><g fill="#c29450" fill-opacity="1"><g transform="translate(152.901688, 154.657637)"><g><path d="M 4.703125 -8.6875 C 5.828125 -8.6875 6.710938 -8.414062 7.359375 -7.875 C 8.003906 -7.34375 8.328125 -6.609375 8.328125 -5.671875 C 8.328125 -4.722656 8.003906 -3.976562 7.359375 -3.4375 C 6.710938 -2.90625 5.828125 -2.640625 4.703125 -2.640625 L 2.546875 -2.640625 L 2.546875 0 L 1.296875 0 L 1.296875 -8.6875 Z M 4.65625 -3.71875 C 5.445312 -3.71875 6.046875 -3.882812 6.453125 -4.21875 C 6.867188 -4.550781 7.078125 -5.035156 7.078125 -5.671875 C 7.078125 -6.296875 6.867188 -6.773438 6.453125 -7.109375 C 6.046875 -7.441406 5.445312 -7.609375 4.65625 -7.609375 L 2.546875 -7.609375 L 2.546875 -3.71875 Z M 4.65625 -3.71875 "/></g></g></g><g fill="#c29450" fill-opacity="1"><g transform="translate(165.044, 154.657637)"><g><path d="M 4.90625 0.09375 C 3.75 0.09375 2.847656 -0.234375 2.203125 -0.890625 C 1.554688 -1.554688 1.234375 -2.507812 1.234375 -3.75 L 1.234375 -8.6875 L 2.46875 -8.6875 L 2.46875 -3.796875 C 2.46875 -1.929688 3.285156 -1 4.921875 -1 C 5.710938 -1 6.316406 -1.226562 6.734375 -1.6875 C 7.160156 -2.15625 7.375 -2.859375 7.375 -3.796875 L 7.375 -8.6875 L 8.578125 -8.6875 L 8.578125 -3.75 C 8.578125 -2.5 8.253906 -1.546875 7.609375 -0.890625 C 6.960938 -0.234375 6.0625 0.09375 4.90625 0.09375 Z M 4.90625 0.09375 "/></g></g></g><g fill="#c29450" fill-opacity="1"><g transform="translate(178.042838, 154.657637)"><g><path d="M 7.15625 -4.515625 C 7.65625 -4.367188 8.050781 -4.109375 8.34375 -3.734375 C 8.632812 -3.367188 8.78125 -2.90625 8.78125 -2.34375 C 8.78125 -1.59375 8.492188 -1.015625 7.921875 -0.609375 C 7.359375 -0.203125 6.535156 0 5.453125 0 L 1.296875 0 L 1.296875 -8.6875 L 5.203125 -8.6875 C 6.203125 -8.6875 6.972656 -8.488281 7.515625 -8.09375 C 8.054688 -7.695312 8.328125 -7.148438 8.328125 -6.453125 C 8.328125 -5.992188 8.21875 -5.597656 8 -5.265625 C 7.789062 -4.929688 7.507812 -4.679688 7.15625 -4.515625 Z M 2.546875 -7.6875 L 2.546875 -4.90625 L 5.09375 -4.90625 C 5.726562 -4.90625 6.21875 -5.019531 6.5625 -5.25 C 6.90625 -5.488281 7.078125 -5.835938 7.078125 -6.296875 C 7.078125 -6.753906 6.90625 -7.097656 6.5625 -7.328125 C 6.21875 -7.566406 5.726562 -7.6875 5.09375 -7.6875 Z M 5.40625 -1 C 6.101562 -1 6.628906 -1.113281 6.984375 -1.34375 C 7.347656 -1.582031 7.53125 -1.953125 7.53125 -2.453125 C 7.53125 -3.421875 6.820312 -3.90625 5.40625 -3.90625 L 2.546875 -3.90625 L 2.546875 -1 Z M 5.40625 -1 "/></g></g></g><g fill="#c29450" fill-opacity="1"><g transform="translate(190.619619, 154.657637)"><g><path d="M 1.296875 -8.6875 L 2.546875 -8.6875 L 2.546875 -1.078125 L 7.25 -1.078125 L 7.25 0 L 1.296875 0 Z M 1.296875 -8.6875 "/></g></g></g><g fill="#c29450" fill-opacity="1"><g transform="translate(201.173004, 154.657637)"><g><path d="M 1.296875 -8.6875 L 2.546875 -8.6875 L 2.546875 0 L 1.296875 0 Z M 1.296875 -8.6875 "/></g></g></g><g fill="#c29450" fill-opacity="1"><g transform="translate(208.20095, 154.657637)"><g><path d="M 5.1875 0.09375 C 4.320312 0.09375 3.535156 -0.0976562 2.828125 -0.484375 C 2.128906 -0.867188 1.582031 -1.394531 1.1875 -2.0625 C 0.789062 -2.738281 0.59375 -3.5 0.59375 -4.34375 C 0.59375 -5.1875 0.789062 -5.945312 1.1875 -6.625 C 1.582031 -7.300781 2.132812 -7.832031 2.84375 -8.21875 C 3.550781 -8.601562 4.335938 -8.796875 5.203125 -8.796875 C 5.878906 -8.796875 6.5 -8.679688 7.0625 -8.453125 C 7.625 -8.222656 8.109375 -7.882812 8.515625 -7.4375 L 7.703125 -6.65625 C 7.046875 -7.34375 6.226562 -7.6875 5.25 -7.6875 C 4.601562 -7.6875 4.019531 -7.539062 3.5 -7.25 C 2.976562 -6.957031 2.570312 -6.554688 2.28125 -6.046875 C 1.988281 -5.546875 1.84375 -4.976562 1.84375 -4.34375 C 1.84375 -3.71875 1.988281 -3.148438 2.28125 -2.640625 C 2.570312 -2.128906 2.976562 -1.726562 3.5 -1.4375 C 4.019531 -1.144531 4.601562 -1 5.25 -1 C 6.21875 -1 7.035156 -1.347656 7.703125 -2.046875 L 8.515625 -1.265625 C 8.109375 -0.816406 7.617188 -0.476562 7.046875 -0.25 C 6.484375 -0.0195312 5.863281 0.09375 5.1875 0.09375 Z M 5.1875 0.09375 "/></g></g></g><g fill="#c29450" fill-opacity="1"><g transform="translate(220.355678, 154.657637)"><g/></g></g><g fill="#c29450" fill-opacity="1"><g transform="translate(226.874669, 154.657637)"><g><path d="M 1.296875 -8.6875 L 2.546875 -8.6875 L 2.546875 -1.078125 L 7.25 -1.078125 L 7.25 0 L 1.296875 0 Z M 1.296875 -8.6875 "/></g></g></g><g fill="#c29450" fill-opacity="1"><g transform="translate(237.428053, 154.657637)"><g><path d="M 1.296875 -8.6875 L 2.546875 -8.6875 L 2.546875 0 L 1.296875 0 Z M 1.296875 -8.6875 "/></g></g></g><g fill="#c29450" fill-opacity="1"><g transform="translate(244.456, 154.657637)"><g><path d="M 7.15625 -4.515625 C 7.65625 -4.367188 8.050781 -4.109375 8.34375 -3.734375 C 8.632812 -3.367188 8.78125 -2.90625 8.78125 -2.34375 C 8.78125 -1.59375 8.492188 -1.015625 7.921875 -0.609375 C 7.359375 -0.203125 6.535156 0 5.453125 0 L 1.296875 0 L 1.296875 -8.6875 L 5.203125 -8.6875 C 6.203125 -8.6875 6.972656 -8.488281 7.515625 -8.09375 C 8.054688 -7.695312 8.328125 -7.148438 8.328125 -6.453125 C 8.328125 -5.992188 8.21875 -5.597656 8 -5.265625 C 7.789062 -4.929688 7.507812 -4.679688 7.15625 -4.515625 Z M 2.546875 -7.6875 L 2.546875 -4.90625 L 5.09375 -4.90625 C 5.726562 -4.90625 6.21875 -5.019531 6.5625 -5.25 C 6.90625 -5.488281 7.078125 -5.835938 7.078125 -6.296875 C 7.078125 -6.753906 6.90625 -7.097656 6.5625 -7.328125 C 6.21875 -7.566406 5.726562 -7.6875 5.09375 -7.6875 Z M 5.40625 -1 C 6.101562 -1 6.628906 -1.113281 6.984375 -1.34375 C 7.347656 -1.582031 7.53125 -1.953125 7.53125 -2.453125 C 7.53125 -3.421875 6.820312 -3.90625 5.40625 -3.90625 L 2.546875 -3.90625 L 2.546875 -1 Z M 5.40625 -1 "/></g></g></g><g fill="#c29450" fill-opacity="1"><g transform="translate(257.03278, 154.657637)"><g><path d="M 7.125 0 L 5.234375 -2.671875 C 5.003906 -2.648438 4.828125 -2.640625 4.703125 -2.640625 L 2.546875 -2.640625 L 2.546875 0 L 1.296875 0 L 1.296875 -8.6875 L 4.703125 -8.6875 C 5.828125 -8.6875 6.710938 -8.414062 7.359375 -7.875 C 8.003906 -7.34375 8.328125 -6.609375 8.328125 -5.671875 C 8.328125 -4.992188 8.160156 -4.414062 7.828125 -3.9375 C 7.492188 -3.46875 7.019531 -3.128906 6.40625 -2.921875 L 8.46875 0 Z M 4.65625 -3.703125 C 5.445312 -3.703125 6.046875 -3.867188 6.453125 -4.203125 C 6.867188 -4.546875 7.078125 -5.035156 7.078125 -5.671875 C 7.078125 -6.296875 6.867188 -6.773438 6.453125 -7.109375 C 6.046875 -7.441406 5.445312 -7.609375 4.65625 -7.609375 L 2.546875 -7.609375 L 2.546875 -3.703125 Z M 4.65625 -3.703125 "/></g></g></g><g fill="#c29450" fill-opacity="1"><g transform="translate(269.237153, 154.657637)"><g><path d="M 6.84375 -2.171875 L 2.21875 -2.171875 L 1.265625 0 L -0.015625 0 L 3.921875 -8.6875 L 5.15625 -8.6875 L 9.109375 0 L 7.796875 0 Z M 6.40625 -3.171875 L 4.53125 -7.421875 L 2.65625 -3.171875 Z M 6.40625 -3.171875 "/></g></g></g><g fill="#c29450" fill-opacity="1"><g transform="translate(281.503607, 154.657637)"><g><path d="M 7.125 0 L 5.234375 -2.671875 C 5.003906 -2.648438 4.828125 -2.640625 4.703125 -2.640625 L 2.546875 -2.640625 L 2.546875 0 L 1.296875 0 L 1.296875 -8.6875 L 4.703125 -8.6875 C 5.828125 -8.6875 6.710938 -8.414062 7.359375 -7.875 C 8.003906 -7.34375 8.328125 -6.609375 8.328125 -5.671875 C 8.328125 -4.992188 8.160156 -4.414062 7.828125 -3.9375 C 7.492188 -3.46875 7.019531 -3.128906 6.40625 -2.921875 L 8.46875 0 Z M 4.65625 -3.703125 C 5.445312 -3.703125 6.046875 -3.867188 6.453125 -4.203125 C 6.867188 -4.546875 7.078125 -5.035156 7.078125 -5.671875 C 7.078125 -6.296875 6.867188 -6.773438 6.453125 -7.109375 C 6.046875 -7.441406 5.445312 -7.609375 4.65625 -7.609375 L 2.546875 -7.609375 L 2.546875 -3.703125 Z M 4.65625 -3.703125 "/></g></g></g><g fill="#c29450" fill-opacity="1"><g transform="translate(293.707987, 154.657637)"><g><path d="M 4.640625 -3 L 4.640625 0 L 3.40625 0 L 3.40625 -3.03125 L -0.046875 -8.6875 L 1.28125 -8.6875 L 4.0625 -4.109375 L 6.859375 -8.6875 L 8.09375 -8.6875 Z M 4.640625 -3 "/></g></g></g></svg>