<svg xmlns="http://www.w3.org/2000/svg" xmlns:xlink="http://www.w3.org/1999/xlink" width="500" zoomAndPan="magnify" viewBox="0 0 375 374.999991" height="500" preserveAspectRatio="xMidYMid meet" version="1.0"><defs><clipPath id="793d0bab8d"><path d="M 6.855469 186.867188 L 166.28125 186.867188 L 166.28125 323.742188 L 6.855469 323.742188 Z M 6.855469 186.867188 " clip-rule="nonzero"/></clipPath><clipPath id="620a2bac87"><path d="M 159.484375 300.742188 L 188 300.742188 L 188 323.742188 L 159.484375 323.742188 Z M 159.484375 300.742188 " clip-rule="nonzero"/></clipPath><clipPath id="ff7529c35f"><path d="M 208.773438 186.867188 L 368.121094 186.867188 L 368.121094 323.742188 L 208.773438 323.742188 Z M 208.773438 186.867188 " clip-rule="nonzero"/></clipPath><clipPath id="211aea19f2"><path d="M 187.019531 300.742188 L 215.574219 300.742188 L 215.574219 323.742188 L 187.019531 323.742188 Z M 187.019531 300.742188 " clip-rule="nonzero"/></clipPath><clipPath id="56fbc2bcc9"><path d="M 224 51.113281 L 255 51.113281 L 255 82 L 224 82 Z M 224 51.113281 " clip-rule="nonzero"/></clipPath></defs><g clip-path="url(#793d0bab8d)"><path fill="#2f4f76" d="M 165.15625 322.421875 C 165.105469 322.402344 165.066406 322.390625 165.042969 322.382812 C 165.058594 322.394531 165.097656 322.414062 165.148438 322.433594 C 165.003906 322.867188 164.863281 323.304688 164.734375 323.742188 C 163.007812 323.234375 161.285156 322.746094 159.550781 322.273438 C 110.429688 308.753906 58.324219 306.050781 6.855469 314.71875 C 16.21875 281.8125 25.582031 248.910156 34.945312 216.003906 C 38.933594 201.984375 50.03125 191.128906 64.117188 187.394531 C 64.765625 187.21875 65.414062 187.050781 66.058594 186.886719 C 54.003906 223.566406 41.949219 260.25 29.890625 296.933594 C 70.300781 291.777344 129.152344 301.042969 161.414062 317.40625 C 163.070312 318.246094 164.652344 319.105469 166.160156 319.980469 C 165.777344 320.769531 165.441406 321.582031 165.15625 322.421875 " fill-opacity="1" fill-rule="nonzero"/></g><path fill="#196fa4" d="M 105.933594 164.796875 C 105.691406 164.851562 105.445312 164.902344 105.203125 164.957031 C 90.953125 168.082031 79.429688 178.535156 74.882812 192.398438 C 64.558594 223.894531 54.816406 253.601562 44.167969 286.085938 C 116.550781 282.703125 156.605469 308.351562 156.605469 308.351562 C 120.136719 276.246094 65.371094 276.375 65.371094 276.375 C 65.371094 276.375 92.4375 200.972656 105.933594 164.796875 " fill-opacity="1" fill-rule="nonzero"/><path fill="#50a5cd" d="M 144.367188 147.457031 C 144.28125 147.476562 144.199219 147.492188 144.117188 147.511719 C 129.855469 150.597656 118.339844 161.089844 113.792969 174.957031 C 103.730469 205.652344 94.226562 234.628906 83.84375 266.304688 C 138.257812 273.382812 161.183594 306.257812 161.183594 306.257812 C 149.9375 273.164062 103.652344 259.972656 103.652344 259.972656 C 103.652344 259.972656 131.140625 182.90625 144.367188 147.457031 " fill-opacity="1" fill-rule="nonzero"/><g clip-path="url(#620a2bac87)"><path fill="#2f4f76" d="M 187.796875 300.921875 C 176.207031 300.921875 166.179688 307.644531 161.414062 317.40625 C 160.960938 318.328125 160.554688 319.28125 160.199219 320.261719 C 159.964844 320.921875 159.746094 321.59375 159.550781 322.273438 C 161.285156 322.746094 163.007812 323.234375 164.734375 323.742188 C 164.863281 323.304688 165.003906 322.867188 165.148438 322.433594 L 165.15625 322.421875 C 165.441406 321.582031 165.777344 320.769531 166.160156 319.980469 C 170.003906 311.898438 178.253906 306.304688 187.796875 306.304688 L 187.796875 300.921875 " fill-opacity="1" fill-rule="nonzero"/></g><path fill="#50a5cd" d="M 220.566406 152.015625 C 238.738281 132.128906 246.28125 109.511719 242.089844 78.25 C 253.382812 107.589844 253.847656 140.035156 232.691406 166.050781 C 196.734375 210.257812 131.242188 216.621094 128.46875 268.132812 C 119.339844 206.703125 182.246094 193.953125 220.566406 152.015625 " fill-opacity="1" fill-rule="nonzero"/><path fill="#f6c275" d="M 166.234375 133.488281 C 166.234375 145.804688 174.765625 155.789062 185.289062 155.789062 C 195.8125 155.789062 204.34375 145.804688 204.34375 133.488281 C 204.34375 121.167969 195.8125 111.183594 185.289062 111.183594 C 174.765625 111.183594 166.234375 121.167969 166.234375 133.488281 " fill-opacity="1" fill-rule="nonzero"/><g clip-path="url(#ff7529c35f)"><path fill="#2f4f76" d="M 209.824219 322.421875 C 209.875 322.402344 209.914062 322.390625 209.9375 322.382812 C 209.917969 322.394531 209.882812 322.414062 209.832031 322.433594 C 209.976562 322.867188 210.117188 323.304688 210.242188 323.742188 C 211.972656 323.234375 213.695312 322.746094 215.429688 322.273438 C 264.550781 308.753906 316.652344 306.050781 368.121094 314.71875 C 358.761719 281.8125 349.394531 248.910156 340.035156 216.003906 C 336.042969 201.984375 324.953125 191.128906 310.863281 187.394531 C 310.214844 187.21875 309.570312 187.050781 308.917969 186.886719 C 320.976562 223.566406 333.03125 260.25 345.085938 296.933594 C 304.679688 291.777344 245.828125 301.042969 213.566406 317.40625 C 211.910156 318.246094 210.328125 319.105469 208.820312 319.980469 C 209.203125 320.769531 209.539062 321.582031 209.824219 322.421875 " fill-opacity="1" fill-rule="nonzero"/></g><path fill="#196fa4" d="M 269.046875 164.796875 C 269.289062 164.851562 269.53125 164.902344 269.773438 164.957031 C 284.027344 168.082031 295.550781 178.535156 300.09375 192.398438 C 310.421875 223.894531 320.164062 253.601562 330.8125 286.085938 C 258.429688 282.703125 218.375 308.351562 218.375 308.351562 C 254.84375 276.246094 309.609375 276.375 309.609375 276.375 C 309.609375 276.375 282.542969 200.972656 269.046875 164.796875 " fill-opacity="1" fill-rule="nonzero"/><path fill="#50a5cd" d="M 213.535156 306.261719 C 213.535156 306.261719 236.460938 273.378906 290.878906 266.304688 C 280.628906 235.046875 271.234375 206.410156 261.320312 176.160156 C 257.347656 182.144531 252.410156 187.535156 246.703125 192.167969 C 258.796875 225.574219 271.070312 259.96875 271.070312 259.96875 C 271.070312 259.96875 224.785156 273.164062 213.535156 306.261719 " fill-opacity="1" fill-rule="nonzero"/><g clip-path="url(#211aea19f2)"><path fill="#2f4f76" d="M 187.183594 306.304688 C 196.726562 306.304688 204.976562 311.898438 208.820312 319.980469 C 209.203125 320.769531 209.539062 321.582031 209.824219 322.421875 L 209.832031 322.433594 C 209.976562 322.867188 210.117188 323.304688 210.242188 323.742188 C 211.972656 323.234375 213.695312 322.746094 215.429688 322.273438 C 215.234375 321.59375 215.015625 320.921875 214.78125 320.261719 C 214.425781 319.28125 214.019531 318.328125 213.566406 317.40625 C 208.800781 307.644531 198.773438 300.921875 187.183594 300.921875 L 187.183594 306.304688 " fill-opacity="1" fill-rule="nonzero"/></g><path fill="#f6c275" d="M 232.078125 199.125 C 249.164062 189.394531 262.234375 174.195312 267.0625 155.410156 C 268.402344 180.203125 256.078125 202.007812 236.257812 215.445312 C 202.765625 238.144531 154.0625 238.207031 135.453125 270.390625 C 143.09375 228.628906 195.347656 220.046875 232.078125 199.125 " fill-opacity="1" fill-rule="nonzero"/><g clip-path="url(#56fbc2bcc9)"><path fill="#f6cf95" d="M 224.449219 56.308594 C 235.410156 65.917969 235.859375 68.125 229.527344 81.253906 C 239.136719 70.292969 241.34375 69.84375 254.46875 76.179688 C 243.511719 66.566406 243.058594 64.359375 249.394531 51.234375 C 239.785156 62.191406 237.578125 62.640625 224.449219 56.308594 " fill-opacity="1" fill-rule="nonzero"/></g><path fill="#f6cf95" d="M 269.886719 104.46875 C 273.664062 104.984375 274.078125 105.402344 274.589844 109.175781 C 275.105469 105.402344 275.523438 104.984375 279.300781 104.472656 C 275.523438 103.957031 275.109375 103.539062 274.59375 99.765625 C 274.082031 103.539062 273.664062 103.957031 269.886719 104.46875 " fill-opacity="1" fill-rule="nonzero"/><path fill="#f6cf95" d="M 203.96875 101.613281 C 211.644531 102.660156 212.492188 103.507812 213.53125 111.183594 C 214.578125 103.507812 215.425781 102.664062 223.101562 101.625 C 215.425781 100.574219 214.582031 99.730469 213.539062 92.054688 C 212.492188 99.726562 211.644531 100.574219 203.96875 101.613281 " fill-opacity="1" fill-rule="nonzero"/></svg>